<svg version="1.2" xmlns="http://www.w3.org/2000/svg" viewBox="0 0 1564 870" width="1564" height="870">
	<defs>
		<radialGradient id="g1" cx="0" cy="0" r="1" gradientUnits="userSpaceOnUse" gradientTransform="matrix(151.596,0,0,151.596,1157.572,380.766)">
			<stop offset=".024" stop-color="#c08329"/>
			<stop offset=".219" stop-color="#eed089"/>
			<stop offset=".59" stop-color="#eed089"/>
			<stop offset="1" stop-color="#c08329"/>
		</radialGradient>
		<radialGradient id="g2" cx="0" cy="0" r="1" gradientUnits="userSpaceOnUse" gradientTransform="matrix(160.52,0,0,160.52,832.148,379.485)">
			<stop offset=".024" stop-color="#c08329"/>
			<stop offset=".219" stop-color="#eed089"/>
			<stop offset=".317" stop-color="#f5ebdb"/>
			<stop offset=".59" stop-color="#eed089"/>
			<stop offset="1" stop-color="#c08329"/>
		</radialGradient>
		<radialGradient id="g3" cx="0" cy="0" r="1" gradientUnits="userSpaceOnUse" gradientTransform="matrix(206.948,0,0,206.948,439.375,368.275)">
			<stop offset=".024" stop-color="#c08329"/>
			<stop offset=".391" stop-color="#c08329"/>
			<stop offset=".686" stop-color="#eed089"/>
			<stop offset="1" stop-color="#c08329"/>
		</radialGradient>
		<radialGradient id="g4" cx="0" cy="0" r="1" gradientUnits="userSpaceOnUse" gradientTransform="matrix(34.18,0,0,34.18,439.375,279.949)">
			<stop offset=".18" stop-color="#f5ebdb"/>
			<stop offset=".59" stop-color="#eed089"/>
			<stop offset="1" stop-color="#c08329"/>
		</radialGradient>
		<radialGradient id="g5" cx="0" cy="0" r="1" gradientUnits="userSpaceOnUse" gradientTransform="matrix(24.572,0,0,24.572,561.468,332.575)">
			<stop offset=".18" stop-color="#f5ebdb"/>
			<stop offset=".59" stop-color="#eed089"/>
			<stop offset="1" stop-color="#c08329"/>
		</radialGradient>
	</defs>
	<style>
		.s0 { fill: #b11f24 } 
		.s1 { fill: url(#g1) } 
		.s2 { fill: url(#g2) } 
		.s3 { fill: url(#g3) } 
		.s4 { fill: url(#g4) } 
		.s5 { fill: #fefefe } 
		.s6 { fill: url(#g5) } 
	</style>
	<g id="Layer 2">
		<path id="&lt;Compound Path&gt;" fill-rule="evenodd" class="s0" d="m270.26 646.46l-15.32 0.45v-3.95h34.57v3.95l-14.86-0.45c0 19.32 0 33.8 0 44.76h-4.83c0-10.09 0.44-18.43 0.44-24.57 0-6.14 0-12.73 0-20.19zm60.86 17.55q0.65-8.55 0-21.05h4.82c0 20.62 0 36.42 0.43 48.26h-5.25q0.65-12.5 0-23.69h-30.65c0 10.53 0.44 18.44 0.44 23.69h-4.82c0.44-17.98 0.44-34.21 0-48.26h4.82c0 3.5 0 6.57 0 9.64 0 3.09-0.44 7.03-0.44 11.41zm16.21-21.05h28.89v3.95c-1.31-0.45-3.94-0.45-7-0.45h-17.52v18.44h22.76v3.5h-22.76v19.32h15.32c3.07 0 6.12 0 9.2-0.45v3.95h-28.89c0-7.02 0-13.16 0-17.55 0.43-4.38 0.43-9.21 0.43-14.48-0.43-5.27-0.43-10.97-0.43-16.23zm84.04 17.55c-1.74-6.14-3.93-11.85-6.13-17.55h4.82c0.88 3.5 2.19 7.46 3.94 12.28 2.19-4.39 3.94-8.33 5.26-12.28h5.25c-4.82 9.64-7.45 15.8-8.32 17.55 3.5 9.66 6.56 18.43 9.63 26.33q5.25-13.17 9.2-22.38c2.19-5.7 5.25-13.16 8.3-21.5h4.82c-6.12 14.48-12.7 30.71-19.7 48.26h-5.24c-3.51-9.21-6.56-17.55-9.63-25-3.94 8.34-7.89 16.66-11.4 25h-5.24c-1.32-3.5-2.63-7.45-4.37-11.84-1.32-4.39-3.96-11.41-7.01-20.19-3.5-8.77-5.26-14.48-6.14-16.23h5.25c3.51 11.84 8.77 26.33 14.89 44.31 3.94-7.46 7.89-16.23 11.82-26.76zm41.15-17.55h29.33v3.95c-1.75-0.45-3.94-0.45-7.44-0.45h-17.07v18.44h22.33v3.5h-22.33v19.32h15.34c3.05 0 6.1 0 9.17-0.45v3.95h-29.33c0.45-7.02 0.45-13.16 0.45-17.55q0-6.58 0-14.48c0-5.27 0-10.97-0.45-16.23zm38.53 0h20.57c7.01 0 12.7 1.75 16.65 5.26 3.93 3.95 6.13 9.22 6.13 16.68 0 2.63 0 5.27-0.45 8.34-0.43 2.63-1.75 5.7-3.5 8.32-1.74 2.64-4.82 5.28-8.31 7.03-3.51 1.76-8.32 2.63-14 2.63h-17.09c0.43-7.02 0.43-12.73 0.43-17.11 0-4.39 0-10.1 0-16.24 0-6.57 0-11.41-0.43-14.91zm4.82 3.5v41.26h12.68c5.27 0 9.65-1.32 12.7-3.52 3.51-2.19 5.69-4.82 7.02-8.33 1.31-3.51 1.75-7.02 1.75-10.97 0-5.71-1.75-10.1-4.81-13.6-2.64-3.08-7.01-4.84-12.7-4.84zm47.27-3.5h20.58c7.01 0 12.24 1.75 16.21 5.26 3.93 3.95 6.12 9.22 6.55 16.68 0 2.63 0 5.27-0.87 8.34-0.45 2.63-1.75 5.7-3.5 8.32-1.75 2.64-4.38 5.28-7.88 7.03q-5.26 2.64-14.45 2.63h-16.64c0-7.02 0-12.73 0.44-17.11 0-4.39 0-10.1 0-16.24-0.44-6.57-0.44-11.41-0.44-14.91zm4.82 3.5l-0.44 41.26h13.14c5.24 0 9.2-1.32 12.69-3.52 3.07-2.19 5.25-4.82 7.01-8.33 1.3-3.51 1.75-7.02 1.75-10.97-0.45-5.71-1.75-10.1-4.82-13.6-3.06-3.08-7.01-4.84-12.7-4.84zm46.84-3.5h5.24c-0.43 3.5-0.43 8.34-0.43 13.6q0 7.9 0 17.11c0 6.59 0.43 12.3 0.43 17.55h-5.24c0.44-8.77 0.44-16.66 0.44-24.12 0-7.47 0-15.36-0.44-24.14zm16.2 0h6.12q3.94 5.93 9.19 13.16c3.51 4.82 7.45 10.53 11.83 16.67 4.37 5.7 7.44 10.54 10.06 13.61l-0.43-43.44h4.81c-0.42 17.12-0.42 33.35-0.42 48.26h-6.14c-3.06-4.82-7.88-11.41-14.02-19.75-6.13-8.32-11.82-16.23-16.62-23.25h-0.45c0 4.83 0 9.65 0 15.36 0 5.27 0 10.09 0 14.05 0 4.38 0.45 8.77 0.45 13.59h-4.82c0.44-14.91 0.44-31.14 0.44-48.26zm90.62 25.01q-7.88 0-11.82 0v-3.51h16.62c-0.43 3.51-0.43 11.85-0.43 25.01-6.13 1.75-11.82 2.19-17.5 2.19-8.33 0-14.46-1.76-19.26-5.69-4.82-3.52-7.46-9.66-7.9-17.12 0-5.27 0.89-9.66 3.08-13.61 1.75-3.94 4.82-7.02 9.19-9.65 4.37-2.2 9.19-3.08 15.75-3.08 4.38 0 9.2 0.45 14.45 1.76l0.44 4.39q-9.19-2.63-15.75-2.63c-5.26 0-9.65 0.88-13.14 3.07-3.5 2.2-5.7 5.27-7.44 8.77-1.32 3.52-2.18 7.46-1.75 11.42 0 6.14 2.18 10.97 6.12 14.04q5.92 5.26 15.76 5.26c4.38 0 8.76-0.87 13.58-2.19zm35.03-25.01h20.12c7.01 0 12.7 1.75 16.64 5.26 3.94 3.95 6.12 9.22 6.12 16.68 0.45 2.64 0 5.27-0.43 8.34-0.43 2.64-1.75 5.71-3.5 8.33-1.76 2.63-4.38 5.27-8.32 7.02-3.5 1.77-8.32 2.64-14.01 2.64h-16.62q0-10.54 0-17.12c0-4.39 0-10.09 0-16.23 0-6.58 0-11.41 0-14.92zm4.8 3.51l-0.43 41.25h12.7c5.24 0 9.62-1.31 12.7-3.52 3.5-2.18 5.68-4.82 6.99-8.32 1.32-3.52 2.19-7.03 1.75-10.98 0-5.7-1.75-10.09-4.37-13.6-3.07-3.08-7.45-4.83-13.13-4.83zm46.84-3.51h29.33v3.95c-1.75-0.44-3.93-0.44-7.44-0.44h-17.07v18.43h22.33v3.51h-22.33v19.31h15.32c2.62 0 5.69 0 9.19-0.45v3.96h-29.33c0-7.03 0.43-13.17 0.43-17.55q0-6.58 0-14.48c0-5.28-0.43-10.98-0.43-16.24zm58.22 37.74c0-2.2-0.87-3.95-3.05-5.7-1.76-2.21-4.39-4.39-7.89-7.03-3.51-3.07-6.14-5.27-7.89-7.46-2.18-2.2-3.05-4.38-3.05-6.59-0.45-4.38 0.87-7.45 3.94-8.77q3.94-2.63 10.5-2.64c2.63 0 5.69 0 8.32 0.89l0.87 4.39c-3.5-1.32-6.56-1.76-10.06-1.76-2.63 0-4.82 0.44-6.57 1.76-1.76 1.31-2.63 3.51-2.63 5.7 0 1.75 0.87 3.52 2.19 4.82 1.32 1.77 3.51 3.52 6.57 6.16 4.37 3.5 7.88 6.14 9.63 8.32 2.19 2.21 3.5 4.84 3.5 7.91 0.44 3.5-0.87 6.57-3.95 8.34-2.62 2.19-6.12 3.07-10.49 3.07-3.07 0-7.45-0.88-11.82-2.2l-0.45-4.39c3.94 2.2 8.33 3.07 12.27 3.07 3.07 0 5.25-0.87 7.01-2.18 2.18-0.89 3.05-3.07 3.05-5.71zm13.13-37.74h4.83c0 3.51 0 8.34 0 13.6q0 7.91 0 17.12c0 6.59 0 12.29 0.43 17.55h-5.26c0.45-8.78 0.45-16.67 0.45-24.13 0-7.47 0-15.36-0.45-24.14zm54.29 25.01c-5.69 0-9.63 0-12.25 0v-3.5h16.63c0 3.5-0.44 11.84 0 25-6.57 1.76-12.26 2.19-17.95 2.19-7.88 0-14.45-1.75-19.26-5.69-4.39-3.52-7.01-9.66-7.44-17.12-0.43-5.27 0.43-9.65 2.62-13.61 2.18-3.94 5.26-7.02 9.19-9.64 4.38-2.2 9.64-3.09 15.77-3.09 4.37 0 9.18 0.45 14.44 1.77l0.45 4.39q-8.55-2.63-15.77-2.64c-5.25 0-9.63 0.88-13.13 3.07-3.07 2.2-5.69 5.27-7.02 8.78-1.75 3.52-2.17 7.46-2.17 11.41 0.42 6.14 2.17 10.98 6.12 14.05q5.91 5.25 15.77 5.25c4.37 0 9.19-0.87 14-2.18zm14.45-25.01h6.12q3.95 5.92 9.2 13.16c3.5 4.82 7.44 10.53 11.83 16.67 4.37 5.7 7.88 10.54 10.06 13.61v-43.44h4.37c-0.43 17.11-0.43 33.35-0.43 48.26h-6.12c-3.07-4.82-7.88-11.41-14.02-19.75-6.12-8.33-11.38-16.23-16.64-23.26-0.43 4.84-0.43 9.66-0.43 15.37 0 5.27 0 10.09 0.43 14.04 0 4.39 0 8.78 0 13.6h-4.81c0.87-14.91 0.87-31.15 0.44-48.26zm70.92 25.44q-0.66-8.56 2.62-14.48c2.2-3.94 5.26-7.01 9.63-8.78 3.95-1.75 8.33-3.07 13.58-3.07 3.51 0 7.44 0.44 10.94 1.32l0.88 4.39c-3.94-1.32-7.45-1.75-11.38-1.75-4.37 0-8.32 0.88-11.39 2.18-3.5 1.77-6.12 4.39-7.87 7.48-1.76 3.5-2.64 7.45-2.64 12.28 0 3.5 0.88 6.58 2.19 9.2 0.89 2.64 2.64 4.84 4.39 6.16q3.27 2.63 6.55 3.94c2.64 0.88 5.26 1.31 8.33 1.31 4.37 0 8.75-0.86 12.25-2.18v3.95c-4.37 1.3-8.31 1.75-12.25 1.75-7.88 0-14.45-2.2-18.82-6.59-4.39-4.38-7.01-10.09-7.01-17.11zm44.22 0c-0.45-7.46 1.75-13.6 6.12-18.87 3.94-4.82 10.52-7.46 19.26-7.46 4.83 0 9.2 1.32 13.14 3.07 3.93 2.2 6.57 5.27 8.76 8.78 1.75 3.52 2.62 7.47 3.05 11.86 0 6.14-1.3 12.28-4.8 17.98-3.08 5.27-10.07 8.34-19.71 8.34q-7.21 0-13.14-2.63c-3.93-1.75-6.99-4.82-9.19-8.34-2.19-3.51-3.49-7.9-3.49-12.73zm45.96-2.19c-0.43-3.95-1.32-7.45-3.05-10.97-1.32-3.07-3.96-5.26-7.01-7.03-3.07-1.75-6.58-2.18-10.52-2.18-7.44 0-12.7 1.75-16.2 6.14-3.49 4.38-4.81 9.65-4.81 16.23 0.44 3.07 0.87 6.15 2.19 9.22 1.31 3.07 3.94 5.71 7.01 7.89 3.07 2.21 7 3.07 12.25 3.07q11.16 0.01 15.77-6.57c3.05-4.39 4.37-9.66 4.37-15.8zm14.02-23.25h6.99c1.32 4.82 3.07 8.77 4.39 13.16 1.75 3.95 3.5 8.77 6.12 14.48 2.19 5.71 3.94 10.96 5.69 15.8 1.32-3.52 3.07-7.46 4.37-10.98 1.32-3.5 3.07-7.45 4.39-10.96 1.75-3.95 3.05-7.91 4.8-11.86 1.33-3.94 2.64-7.01 3.51-9.64h7.01q0 8.54 0 15.8c0.43 4.82 0.43 11.41 0.43 18.86 0.44 3.07 0.44 7.89 0.89 13.6h-4.82c0-9.66 0-24.12-0.87-43.44q-9.86 24.35-17.09 43.44h-5.24c-2.19-5.71-4.39-12.28-7.44-19.75q-3.95-11.18-9.2-23.69c-0.43 6.59-0.43 12.73-0.88 18-0.43 5.69-0.43 10.09-0.43 14.48 0 4.39 0 7.89 0 10.96h-4.81c0.87-9.66 1.3-25.44 2.19-48.26zm57.79 0h17.06c3.51 0 6.56 0.86 8.75 2.63 2.64 1.75 3.51 4.39 3.94 8.33 0 5.27-1.3 8.77-4.81 11.41-3.5 2.2-7.01 3.52-11.38 3.52-2.63 0-7.87-0.45-9.2-0.45 0 8.84 0.02 16.45 0.44 22.82h-4.8c0.43-19.75 0.43-35.98 0-48.26zm13.13 22.37c3.05 0 6.12-0.87 8.31-2.64 2.62-1.75 3.93-4.38 3.5-7.89 0-5.7-3.07-8.34-8.76-8.34h-11.82q0 7.1 0 18.43c1.76 0.44 6.13 0.44 8.77 0.44zm45.09 4.39h-19.28c-3.05 6.59-6.56 13.61-9.62 21.5h-5.26c5.26-10.53 9.64-19.75 13.15-27.21 3.48-7.01 6.56-14.03 9.62-21.05h5.7c1.75 3.95 3.05 8.34 4.81 12.28 1.75 3.95 3.07 7.9 4.82 11.86 1.75 3.93 3.05 7.89 4.37 10.96q1.97 5.26 5.25 13.16h-5.25c-1.75-6.14-4.81-13.6-8.31-21.5zm-17.96-3.94h17.08l-7.88-19.32zm34.59-22.82h6.55q3.95 5.93 9.2 13.16c3.5 4.82 7.44 10.53 11.81 16.67 4.39 5.7 7.45 10.54 9.63 13.61h0.45l-0.45-43.44h4.83c-0.44 17.11-0.88 33.35-0.44 48.26h-6.13c-3.5-4.82-7.89-11.41-14.01-19.75-6.13-8.33-11.81-16.23-17.07-23.26 0 4.84 0 9.66 0 15.37 0 5.27 0 10.09 0 14.04 0 4.39 0 8.78 0 13.6h-4.37c0.43-14.91 0.43-31.15 0-48.26zm62.16 48.26c0.43-6.57 0.43-13.6 0.86-21.5-2.61-4.39-5.69-9.21-8.74-14.48-3.5-5.26-5.69-9.21-7.89-12.28h5.25c1.75 2.63 3.51 5.7 5.69 9.64q3.29 5.93 7.9 13.18c6.99-11.41 11.81-19.32 14-22.82h4.82l-16.64 26.76c0 2.64 0 5.7-0.45 9.22 0 3.51 0 7.46 0 12.28z"/>
		<g id="&lt;Group&gt;">
			<path id="&lt;Compound Path&gt;" fill-rule="evenodd" class="s1" d="m1174.71 541.52c-28.78 0-55.75-6.31-80.16-18.76-25.08-12.8-43.95-30.26-57.68-53.35-13.93-22.68-21-49.63-21-80.09-1.79-49.52 13.39-90.58 45.1-121.93 32.25-31.88 71.04-47.38 118.57-47.38 35.19 0 67.01 9.16 94.64 27.23l6.46-20.65h12.99l3.7 117.9h-17.06l-0.39-2.55c-4.38-28.8-15.03-67.7-30.62-82.52-16.26-15.48-39.28-23.32-68.42-23.32-28.21 0-51.78 12.41-72.06 37.92-19.62 25.22-29.57 62.1-29.57 109.6 0 30.22 4.49 56.25 13.35 77.39 9 21.49 20.98 37.28 36.61 48.29 15.78 10.69 33.77 16.13 53.43 16.13 27.06-0.86 49.39-9.01 66.28-24.25 15.85-14.34 28.55-42.31 36.73-80.88l0.5-2.38h13.31v112.19h-9.62l-11.43-21.68c-28.71 21.96-63.56 33.09-103.66 33.09zm4.83-315.51c-45.88 0-83.28 14.93-114.35 45.65-30.9 30.54-45.07 68.99-43.32 117.55 0 29.44 6.77 55.34 20.13 77.09 13.16 22.13 31.24 38.84 55.28 51.12 23.56 12.01 49.61 18.1 77.43 18.1 40.04 0 74.61-11.44 102.76-34l2.83-2.28 13.12 24.87v-100.19h-2.46c-6.03 27.47-17.44 63.06-38.05 81.71-17.98 16.22-41.61 24.9-70.22 25.8h-0.01c-20.97 0-40.09-5.79-56.92-17.2-16.63-11.7-29.28-28.34-38.74-50.9-9.16-21.88-13.81-48.69-13.81-79.71 0-48.87 10.38-86.99 30.85-113.3 21.51-27.07 46.62-40.22 76.78-40.22 30.73 0 55.14 8.4 72.56 24.97 10.24 9.74 24.64 37.36 32.02 83.42h5.72l-3.32-105.9h-2.77l-7.56 24.16-3.35-2.31c-27.38-18.87-59.21-28.43-94.6-28.43z"/>
		</g>
		<g id="&lt;Group&gt;">
			<path id="&lt;Compound Path&gt;" fill-rule="evenodd" class="s2" d="m690.79 539.77c-8.02 0-8.89-5.48-8.89-7.84 0-5.15 5.43-6.78 8.34-7.66l0.31-0.07c9.22-1.54 15.58-4.91 18.39-9.75 2.03-3.77 4.49-12.47 4.49-32.1v-202.73c0-14.39-2.55-25.41-7.39-31.86-4.74-6.34-12.77-10.03-24.54-11.3-8.79-0.72-10.11-4.89-10.11-7.3 0-2.07 0.84-6.89 8.64-6.89l19.01 0.95c1.43 0.37 7.98 0.37 15.57 0.37 15.57 0 27.85-0.44 36.52-1.31l21.5-1.76c9.74-0.89 19.98-1.32 31.29-1.32 64 0 112.75 15.89 144.89 47.22 29.26 28.42 44.09 65.34 44.09 109.74 0 29.46-6.39 55.55-19.56 79.74-12.99 24.24-30.62 42.78-53.88 56.68-28.62 17.65-59.69 26.24-94.96 26.24-2.63 0-6.51-0.18-11.87-0.44q-4.23-0.21-9.7-0.44c-24.19-1.53-40.38-2.19-54.18-2.19-16.11 0-30.43 0.88-42.55 2.61-5.92 0.91-10.33 1.34-13.82 1.34q-0.83 0.07-1.59 0.07zm0.75-10.67c-4.64 1.42-4.64 2.3-4.64 2.83 0 1.2 0 2.84 3.89 2.84q0.61 0 1.29-0.06l0.2-0.01c3.25 0 7.44-0.4 13.19-1.28 12.38-1.77 26.93-2.67 43.28-2.67 13.91 0 30.19 0.66 54.45 2.19q5.41 0.24 9.67 0.45c5.29 0.25 9.12 0.43 11.63 0.43 34.32 0 64.53-8.34 92.37-25.52 22.49-13.44 39.52-31.35 52.07-54.77 12.77-23.46 18.96-48.76 18.96-77.37 0-42.99-14.32-78.71-42.57-106.16-31.18-30.39-78.76-45.8-141.41-45.8-11.16 0-21.25 0.43-30.86 1.3l-21.48 1.76c-8.78 0.88-21.24 1.33-36.97 1.33-9.78 0-14.42-0.02-16.52-0.46l-18.18-0.86c-3.52 0-3.52 1.13-3.52 1.89 0 1.13 2.19 2.05 5.58 2.33 13.29 1.42 22.45 5.77 28.07 13.28 5.57 7.42 8.39 19.15 8.39 34.85v202.73c0 16.6-1.72 28.22-5.13 34.54-3.66 6.3-10.97 10.39-21.76 12.21zm138.21-3.01c-9.76 0-21.12-1.07-32.83-3.1-13.19-2.2-23.96-4.9-31.99-8.03-10.63-3.88-16.05-11.02-16.05-21.2v-232.13c0-9.87 2.39-16.74 7.1-20.41 7.06-5.66 22.89-8.42 48.37-8.42 35.09 0 65.04 8.57 89 25.47 20.28 14 36.32 33.08 47.66 56.69 11.21 24.25 16.88 50.88 16.88 79.19 0 52.62-18.53 90.4-55.06 112.29-21.54 13.22-45.45 19.65-73.08 19.65zm-25.4-288.29c-29.84 0-41.09 3.99-45.27 7.34-3.41 2.66-5.2 8.36-5.2 16.49v232.13c0 8.08 4.07 13.33 12.82 16.52 7.75 3.03 18.19 5.64 31.06 7.78 11.45 1.98 22.51 3.03 31.99 3.03 26.68 0 49.73-6.19 70.49-18.93 34.94-20.94 52.65-57.27 52.65-108.01 0-27.58-5.52-53.5-16.4-77.06-10.94-22.78-26.43-41.2-46-54.72-23.12-16.31-52.1-24.57-86.14-24.57z"/>
		</g>
		<g id="&lt;Group&gt;">
			<path id="&lt;Compound Path&gt;" fill-rule="evenodd" class="s3" d="m500.84 563.69l-2.13-1.83c-10.03-8.56-15.82-23.27-16.91-32.53q-0.87 0.06-1.9 0.07c-5.68 0-16.07-1.96-21.78-15.09l-1.42-3.27 4.51-1.09c7.56-1.79 12.56-2.98 7.03-26.71-3.62-11.45-21.77-66.52-28.87-88.05-7.09 21.53-25.24 76.6-28.86 88.05-5.53 23.74-0.53 24.92 7.03 26.71l4.51 1.09-1.42 3.27c-5.71 13.13-16.1 15.09-21.78 15.09q-1.03-0.01-1.91-0.07c-1.09 9.26-6.88 23.97-16.89 32.53l-2.14 1.83-1.96-2.02c-9.16-9.41-13.99-19.24-15.8-32.42-1.28 0.17-2.61 0.3-3.95 0.3-8.24 0-13.49-5.16-16.05-15.78l-0.9-3.74 4.08 0.04c4.5 0 7.61-1.23 9.25-3.65 3.3-4.87 0.77-14.1-0.48-17.25-0.29-0.81-24.69-69.97-32-90.96-11.62-33.18-18.79-38.53-44.42-46.99l-3.79-1.26 2.26-3.29c10.84-15.77 13.79-31.4 8.76-46.44-2.86-8.55-7.55-14.41-9.64-16.74-2.49 0.55-7.95 1.67-18.1 3.47l-0.23 0.03q-1.44 0.15-2.89 0.15c-13.79 0-24.94-9.56-28.83-18.99-3.17-7.69-1.91-15.16 3.46-20.5 5.2-5.4 10.35-8.16 15.25-8.16 6.7 0 11.12 5.12 12.52 10.19 1.12 4.04 0.19 7.52-2.41 9.08-1.91 1.14-2.64 2.68-2.52 3.7 0.14 1.19 1.45 1.9 2.46 2.28 8.26-0.71 28.13-11.87 35.24-16.21l4.7-2.86-0.14 5.5c-0.04 1.88 0.41 6.33 2.05 8 0.41 0.41 0.83 0.59 1.41 0.59 0.62 0 1.72-0.21 3.45-1.18 2.07-1.18 3.2-2.58 3.44-4.28 0.58-3.99-3.51-9.25-4.99-10.77l-2.05-2.12 2.08-2.09c0.81-0.81 19.97-19.98 30.51-27.92 15.22-11.25 29.37-13.6 38.57-13.6 20.08 0 36.4 11.39 37.15 25.93 0.61 10.57-2.71 16.45-5.61 19.52-3.09 3.27-7.24 5.07-11.69 5.07-3.88 0-7.55-1.4-10.09-3.84l-0.21-0.23c-3.82-4.54-4.83-9.68-2.77-14.12 1.74-3.75 5.38-6.3 9.5-6.77-3.15-4.34-9.4-5.98-15.02-5.98-8.85 0-21.93 4.29-29.76 16.39-11.84 21.5-15.22 40.86-10.05 57.52 6.23 20.09 22.75 29.7 27.66 32.16l2.72 1.37-1.4 2.7c-15.71 30.21-7.99 60.02-7.5 61.82l32.14 88.4c8.77-28.72 36.77-120.44 41.84-136.51-19.06-36.42-27.18-84.84-17.01-102.18 8.12-12.33 8.28-16.77 7.66-18.33-0.64-1.6-3.26-2.33-6.63-3.13l-2.51-0.58 0.21-2.57c1.04-13.46 11.44-13.46 14.86-13.46 1.77 0 3.6 0.14 5.4 0.31 1.36-16.41 11.73-26.13 12.2-26.56l2.03-1.87 2.03 1.87c0.47 0.43 10.84 10.15 12.21 26.56 1.8-0.17 3.62-0.31 5.4-0.31 3.41 0 13.81 0 14.87 13.46l0.2 2.57-2.51 0.58c-3.37 0.8-5.99 1.53-6.63 3.13-0.62 1.56-0.46 6 7.58 18.2 10.24 17.47 2.12 65.89-16.93 102.31 5.07 16.08 33.07 107.79 41.83 136.51l32.15-88.4c0.48-1.8 8.16-31.7-7.5-61.82l-1.4-2.7 2.72-1.37c4.91-2.46 21.43-12.07 27.66-32.16 5.17-16.66 1.79-36.02-10.06-57.53-7.82-12.09-20.91-16.38-29.75-16.38-5.62 0-11.87 1.64-15.02 5.98 4.12 0.47 7.75 3.02 9.5 6.77 2.06 4.44 1.05 9.58-2.77 14.12l-0.21 0.23c-2.54 2.44-6.21 3.84-10.09 3.84-4.45 0-8.6-1.8-11.69-5.07-2.9-3.07-6.22-8.95-5.61-19.54 0.75-14.52 17.06-25.91 37.15-25.91 9.2 0 23.35 2.35 38.55 13.58 10.56 7.96 29.72 27.13 30.52 27.94l2.09 2.09-2.05 2.12c-1.59 1.65-5.58 6.8-4.99 10.78 0.24 1.7 1.37 3.09 3.44 4.27 1.73 0.97 2.83 1.18 3.45 1.18 0.58 0 1-0.18 1.41-0.59 1.65-1.7 2.09-6.12 2.04-8l-0.13-5.5 4.7 2.86c7.1 4.34 26.98 15.5 35.24 16.21 1.01-0.38 2.31-1.09 2.46-2.28 0.12-1.02-0.61-2.56-2.52-3.7-2.61-1.56-3.53-5.04-2.41-9.08 1.4-5.07 5.81-10.19 12.52-10.19 4.9 0 10.04 2.76 15.29 8.2 5.33 5.3 6.59 12.77 3.42 20.46-3.89 9.43-15.04 18.99-28.83 18.99q-1.45 0-2.89-0.15l-0.23-0.03c-10.18-1.8-15.63-2.93-18.12-3.47-4.97 5.45-23.86 29.73-0.86 63.18l2.26 3.29-3.8 1.26c-25.62 8.46-32.79 13.81-44.41 46.99-7.31 20.99-31.71 90.15-31.95 90.85-1.31 3.26-3.84 12.49-0.54 17.36 1.64 2.42 4.76 3.65 9.26 3.65l4.08-0.04-0.9 3.74c-2.56 10.62-7.81 15.78-16.06 15.78-1.34 0-2.67-0.13-3.94-0.3-1.81 13.18-6.64 23.01-15.8 32.42zm-135.41-41.37l0.32 3.19c1.21 12.28 4.99 21.37 12.5 29.83 8.91-9.09 13.07-23.35 12.88-29.37l-0.14-4.08 3.93 1.09c0 0 1.61 0.42 3.93 0.42 4.51 0 10.45-1.53 14.63-8.3-9.22-2.7-14.67-8.15-8.78-33.33l0.06-0.22c4.4-13.96 31.49-96.04 31.76-96.87l2.85-8.63 2.85 8.63c0.28 0.83 27.37 82.91 31.77 96.87l0.06 0.22c5.89 25.18 0.43 30.63-8.78 33.33 4.17 6.77 10.12 8.3 14.63 8.3 2.32 0 3.92-0.42 3.94-0.42l3.9-1.04-0.12 4.03c-0.19 6.02 3.97 20.28 12.88 29.37 7.51-8.46 11.29-17.55 12.5-29.83l0.32-3.19 3.71 0.61c1.84 0.31 3.74 0.63 5.51 0.63 3.4 0 6.82-1.03 9.21-7.73-4.75-0.66-8.29-2.69-10.56-6.05-5.76-8.51-0.34-22.25-0.11-22.84 0.2-0.57 24.59-69.72 31.91-90.7 11.59-33.11 19.89-40.94 44.5-49.47-24.83-39.92 4.63-68.47 4.94-68.76l1.19-1.13 1.6 0.4c0.04 0.01 4.86 1.2 19.29 3.76 12.08 1.14 22.14-7.09 25.47-15.18 1.3-3.13 2.73-9.1-2.14-13.95-4.06-4.21-7.86-6.42-11.02-6.42-3.27 0-5.1 2.36-5.9 3.77-1.18 2.09-1.19 3.93-0.99 4.44 3.68 2.27 5.69 5.88 5.25 9.48-0.41 3.47-3.01 6.19-7.11 7.46l-0.49 0.15-0.5-0.02c-8.71-0.29-26.35-9.91-34.56-14.67-0.46 2.47-1.41 5.31-3.31 7.26-2.91 2.99-7.19 3.23-12.1 0.44-4.67-2.64-6.08-6.16-6.44-8.64-0.76-5.36 2.46-10.62 4.7-13.54-5.22-5.15-19.62-19.18-27.91-25.43-13.86-10.23-26.67-12.39-34.96-12.39-16.89 0-30.58 8.89-31.16 20.24-0.39 6.71 0.99 11.93 3.99 15.1 1.94 2.06 4.54 3.19 7.32 3.19 2.25 0 4.41-0.77 5.82-2.07 2.2-2.67 2.85-5.37 1.81-7.6-1.25-2.69-4.82-4.12-7.66-2.93l-5.2 2.19 1.1-5.54c1.81-9.11 10.73-15 22.72-15 10.87 0 25.74 5.05 34.86 19.23l0.1 0.17c12.7 23.03 16.26 43.99 10.58 62.3-6.05 19.52-20.8 30.12-28.07 34.32 15.43 32.15 6.98 62.39 6.6 63.69l-0.06 0.2-38.33 105.39-2.61-8.6c-0.41-1.32-40.34-132.25-44.82-146.22l-0.39-1.21 0.6-1.12c20.07-37.65 26.01-83.3 17.72-97.44-7.59-11.53-10.03-18.62-8.05-23.58 1.43-3.61 4.9-5.15 8.16-6.08-1.04-4.51-3.91-5.45-8.52-5.45-2.02 0-4.27 0.23-6.46 0.44l-4.77 0.46-0.02-3.27c-0.08-11.28-5.38-19.45-8.39-23.19-3 3.74-8.3 11.91-8.37 23.19l-0.03 3.27-4.77-0.46c-2.18-0.21-4.44-0.44-6.46-0.44-4.61 0-7.48 0.94-8.52 5.45 3.26 0.93 6.73 2.47 8.16 6.08 1.98 4.96-0.46 12.05-8.14 23.71-8.2 14.01-2.27 59.66 17.81 97.31l0.6 1.12-0.39 1.21c-4.48 13.97-44.42 144.9-44.82 146.22l-2.62 8.59-38.38-105.58c-0.38-1.3-8.83-31.54 6.59-63.69-7.26-4.2-22.01-14.8-28.06-34.32-5.68-18.31-2.12-39.27 10.58-62.3l0.11-0.17c9.11-14.18 23.98-19.23 34.85-19.23 11.99 0 20.91 5.89 22.72 15l1.1 5.54-5.21-2.19c-2.83-1.19-6.4 0.24-7.65 2.93-1.04 2.23-0.39 4.93 1.82 7.6 1.4 1.3 3.56 2.07 5.81 2.07 2.78 0 5.38-1.13 7.32-3.19 3-3.17 4.38-8.39 4-15.08-0.59-11.37-14.28-20.26-31.17-20.26-8.29 0-21.1 2.16-34.98 12.41-8.27 6.24-22.67 20.26-27.89 25.41 2.24 2.92 5.47 8.18 4.7 13.54-0.36 2.48-1.77 6-6.43 8.64-4.92 2.79-9.2 2.55-12.11-0.44-1.91-1.95-2.85-4.79-3.32-7.26-8.2 4.76-25.84 14.38-34.55 14.67l-0.5 0.02-0.48-0.15c-4.11-1.27-6.71-3.99-7.13-7.46-0.43-3.6 1.58-7.21 5.25-9.48 0.21-0.52 0.2-2.35-0.99-4.44-0.8-1.41-2.63-3.77-5.89-3.77-3.16 0-6.96 2.21-10.97 6.37-4.93 4.89-3.49 10.87-2.2 14 3.14 7.6 12.14 15.28 23.29 15.28q1.08 0 2.19-0.1c14.43-2.56 19.25-3.75 19.29-3.76l1.59-0.4 1.2 1.13c0.31 0.29 29.77 28.84 4.94 68.76 24.61 8.54 32.91 16.36 44.5 49.46 7.32 20.99 31.71 90.14 31.96 90.84 0.18 0.46 5.6 14.2-0.16 22.71-2.27 3.36-5.81 5.39-10.56 6.05 2.39 6.7 5.81 7.73 9.2 7.73 1.78 0 3.68-0.32 5.52-0.63zm183.06-148.75l0.7-13.84c0.43-8.64-0.6-17.97-3.44-31.22l-0.37-1.7 1.3-1.16c6.93-6.23 14.39-15 19.48-22.9l6-9.31-0.48 11.07c-0.01 0.18-0.7 17.85 5.16 33.13l1.12 2.93-2.98 0.99c-7.64 2.54-14.98 9.71-20.13 19.7zm3.47-44.64c1.68 8.04 2.68 14.71 3.09 20.72 4.43-5.82 9.6-10.16 15.18-12.67-2.84-8.49-3.95-17.17-4.36-23.46-4.24 5.52-9.15 10.98-13.91 15.41zm-221.72 44.63l-6.35-12.31c-5.15-9.98-12.49-17.16-20.14-19.69l-2.98-0.99 1.13-2.94c5.85-15.28 5.16-32.95 5.16-33.13l-0.48-11.07 6 9.32c5.08 7.9 12.54 16.67 19.48 22.89l1.29 1.16-0.36 1.7c-2.84 13.23-3.87 22.57-3.44 31.22zm-21.74-36.57c5.57 2.51 10.75 6.85 15.17 12.67 0.41-6.02 1.42-12.69 3.09-20.72-4.75-4.43-9.66-9.89-13.9-15.41-0.42 6.29-1.53 14.97-4.36 23.46zm130.86-9.77c-1.09 0-4.01 0-11.28-19.56-3.51-9.45-7.7-23.55-7.7-36.97 0-34.28 13.28-37.98 18.98-37.98 5.71 0 18.99 3.7 18.99 37.98 0 13.42-4.2 27.51-7.72 36.98-7.27 19.55-10.17 19.55-11.27 19.55zm0-88.51c-8 0-12.98 12.25-12.98 31.98 0 18.75 8.81 39.75 12.98 47.92 4.17-8.18 12.99-29.22 12.99-47.92 0-19.73-4.98-31.98-12.99-31.98z"/>
		</g>
		<g id="&lt;Group&gt;">
			<path id="&lt;Path&gt;" class="s0" d="m439.38 235.69c-8.84 0-15.99 10.54-15.99 34.99 0 24.44 14.72 53.53 15.99 53.53 1.24 0 15.98-29.09 15.98-53.53 0-24.45-7.15-34.99-15.98-34.99z"/>
			<path id="&lt;Compound Path&gt;" fill-rule="evenodd" class="s4" d="m439.38 325.21c-2.88 0-16.99-31.5-16.99-54.53 0-22.54 6.35-35.99 16.99-35.99 10.63 0 16.98 13.45 16.98 35.99 0 23.03-14.11 54.53-16.98 54.53zm0-88.52c-9.39 0-14.99 12.71-14.99 33.99 0 21.63 11.9 47.46 14.98 52.05 3.09-4.61 14.99-30.49 14.99-52.05 0-21.28-5.6-33.99-14.98-33.99z"/>
		</g>
		<g id="&lt;Group&gt;">
			<path id="&lt;Path&gt;" class="s5" d="m568.69 304.37c0 0-0.82 18.25 5.35 34.33-8.04 2.67-16.07 9.95-21.85 21.17 0.5-10-1-20.33-3.5-32 7.13-6.41 14.79-15.42 20-23.5z"/>
			<path id="&lt;Compound Path&gt;" fill-rule="evenodd" class="s6" d="m550.96 364.43l0.23-4.61c0.44-8.82-0.6-18.31-3.48-31.74l-0.12-0.57 0.43-0.39c7.05-6.33 14.65-15.26 19.83-23.29l2-3.11-0.17 3.69c0 0.18-0.72 18.24 5.29 33.93l0.38 0.98-0.99 0.33c-8.14 2.7-15.9 10.23-21.29 20.68zm-1.17-36.21c2.4 11.3 3.5 19.87 3.5 27.63 5.25-8.67 12.16-15 19.47-17.76-4.28-11.72-5-24.48-5.09-30.4-5.02 7.23-11.63 14.84-17.88 20.53z"/>
		</g>
		<path id="&lt;Path&gt;" class="s5" d="m310.06 304.37c0 0 0.81 18.25-5.35 34.33 8.04 2.67 16.06 9.95 21.85 21.17-0.5-10 1-20.33 3.5-32-7.14-6.41-14.79-15.42-20-23.5z"/>
	</g>
</svg>