<svg version="1.2" xmlns="http://www.w3.org/2000/svg" viewBox="0 0 751 1374" width="751" height="1374">
	<style>
		tspan { white-space:pre } 
		.s0 { fill: #121212 } 
		.s1 { fill: #fef8f8 } 
		.s2 { fill: #fbfbfb } 
		.s3 { fill: #141414 } 
		.s4 { fill: #0a0707 } 
		.s5 { fill: #881821 } 
		.s6 { fill: #871821 } 
		.s7 { fill: #861821 } 
		.s8 { fill: #0c0404 } 
		.s9 { fill: #090304 } 
		.s10 { fill: #841820 } 
		.s11 { fill: #2f2424 } 
		.s12 { fill: #861820 } 
		.s13 { fill: #851820 } 
		.s14 { fill: #811820 } 
		.s15 { fill: #fefdfd } 
		.s16 { fill: #7f181f } 
		.s17 { fill: #f26a6b } 
		.s18 { fill: #f16465 } 
	</style>
	<g id="Layer 1">
		<g id="&lt;Group&gt;">
			<path id="&lt;Path&gt;" class="s0" d="m341.1 1224.52c-24.71-2.62-47.68-2.24-71.23 1.56 9.79-5.06 19.3-7.88 29.83-9.84 11.27-2.11 33.19-0.17 41.4 8.28z"/>
			<path id="&lt;Path&gt;" class="s1" d="m443.53 981.47l-1.83-0.9c-0.6-0.29 0.12-2.64 0.74-2.94 0.37-0.19 0.61 1.23 1.09 3.84z"/>
			<g id="&lt;Group&gt;">
				<g id="&lt;Group&gt;">
					<path id="&lt;Compound Path&gt;" fill-rule="evenodd" class="s2" d="m447.09 361.64c-0.65-0.15-1.75-1.06-1.75-1.69l-0.02-2.17-4.13-4.64c2.32-4.44 6.01-7.84 10.66-9.57l9.61-3.59c0.2-3.04-3.06-6.57-5.61-6.46l-18.29 14.52c-3.69-3.63-1.87-7.77 0.99-11.1l9.38-10.96c0.55-0.63 0.66-3.04 0.19-3.69-1.67-2.34-8.66-2.99-12.31-1.54 1.95 2.27 2.8 3.05 4.96 4.99-5.61 4.33-37.59 7.71-42.46-1.09 18.02-10.57 16.3-28.6 37.28-36.44-0.92-7.22-0.13-13.36 2.95-19.01 4.19-2.61 8.12-2.93 12.44-0.35 8.09 4.82 18 3.85 27.13 2.3 4 7.17 8.05 13.58 13.93 20.06-9.67 9.58-2.7 23.24-4.9 23.25-4.77 0.03-4.17-3.58-10.13-6.2-2.54 4.86-3.75 9.19-2.87 14.26 0.73 4.15 5.58 6.37 9.74 6.24 12.46-0.37 24.32-1.78 37.44-3.41 2.13 7.97-16.98 5.36-7.89 11.23l2.2 1.42c0.61 0.39-0.02 2.54-0.58 3.28-14.05 18.47-37.81 27.8-59.94 32.1-0.53-5.1-3.87-12.85-8.02-11.74zm13.42-67.79c-4.24-1.57-8.88 3.83-10.62 1.27-2.73-4.02-0.36-10.71-2.61-16.96-4.62 6.72-6.31 13.77-5.9 21.02l15.12 0.57c1.13 0.04 3.18-0.96 4.05-1.65 0.73-0.58 0.83-3.93-0.04-4.25z"/>
					<path id="&lt;Path&gt;" class="s3" d="m437.56 269.15l0.98 0.05c-3.08 5.65-3.87 11.79-2.95 19.01-20.98 7.84-19.26 25.87-37.28 36.44 4.87 8.8 36.85 5.42 42.46 1.09-2.16-1.94-3.01-2.72-4.96-4.99 3.65-1.45 10.64-0.8 12.31 1.54 0.47 0.65 0.36 3.06-0.19 3.69l-9.38 10.96c-2.86 3.33-4.68 7.47-0.99 11.1l18.29-14.52c2.55-0.11 5.81 3.42 5.61 6.46l-9.61 3.59c-4.65 1.73-8.34 5.13-10.66 9.57l4.13 4.64c-0.51 0.17-2.59-0.02-3.27-0.57l-7.81-6.25c-6.16-4.93 5.16-17.81-2.91-17.54l-23.82 0.8c-4.02 0.14-8.51-0.75-12.18-2.06-1.65-13.26 1.88-12.46 6.82-17.22 14.25-13.73 25.02-29.57 35.41-45.79z"/>
					<path id="&lt;Path&gt;" class="s2" d="m286.04 777.97c-4.38 0.31-8.74 4.08-10.09 8.04l-8.73 25.46c-2.43 0.05-4.89-1.82-6.74-3.55l-3.17-2.99c5.51-12.04 16.69-22.4 17.74-35.57-15.69 7.16-27.57 15.54-33.17 32.29-3.37-6.54-0.64-13.66 3.85-18.7l15.7-17.61c-1.01-2.79-2.51-6.14-3.79-8.51-11.75-3.48-15.86 3.83-26.23 2.72 10.37-12.16 27.98-12.74 33.24-30.16l-16.31-8.51c-4.05-2.11-6.94-6.45-5.95-11.57 23.02 17.61 49.67 1.45 69.88 16.77l11.98-7.95c4.94-3.28 11.63-4.05 14.81 2.01l-7.82 2.7c0.6 1.42 1.65 3.33 2.57 3.67 4.18 1.53 3.88-1.57 9.76-1.89 1.15-0.07 3.44 2.14 3.36 3.33-0.2 2.72-3.39 5.81-5.84 7.07-6.63 3.4-12.44 7.12-18.18 11.92-0.08 6.07 7.79 8.66 2.12 15.31-17.66 20.68-34.76 21.77-32.73 47.71-3.01-0.28-6.03-1.3-8.27-2.57l4.19-17.78c0.77-3.26-0.28-8.76-2.18-11.64z"/>
					<path id="&lt;Path&gt;" class="s1" d="m230.12 764.82c-0.77 3.83-6.76 13.3-10.77 11.73-1.29-0.51-2.1-3.78-1.27-4.86 3.32-4.3 6.33-7.71 12.04-6.87z"/>
					<path id="&lt;Path&gt;" class="s0" d="m460.51 293.85c0.87 0.32 0.77 3.67 0.04 4.25-0.87 0.69-2.92 1.69-4.05 1.65l-15.12-0.57c-0.41-7.25 1.28-14.3 5.9-21.02 2.25 6.25-0.12 12.94 2.61 16.96 1.74 2.56 6.38-2.84 10.62-1.27z"/>
				</g>
				<g id="&lt;Group&gt;">
					<path id="&lt;Compound Path&gt;" fill-rule="evenodd" class="s4" d="m553.83 444.74c-14.64-10.34-29.18 9.93-35.99 21.79 17.25-6.53 18.09-14.13 38.66-17.97 2.18 2.36 5.67 7.61 6.32 10.89l-7.76 11.74c8.51 15.46-2.73 36.39-4.82 57.08-1.68 16.72 3.14 27.11-6.28 40.16 1.82 8.44 9.83 11.58 13.29 20.67-12.09 18.88-12.67 57.78-0.36 76.48-4.71 8.12-11.7 14.92-19.07 20.92l-1.69 52.56c-0.27 8.53 1.1 17.82 6.28 24.24 2.1 2.59 2.75 3.8 2.18 7.1l-2.06 11.94c4.18 4.69 7.44 11.16 7.09 18.06l-1.39 27.43c-0.84 16.65 16.37 39.05 21.84 56.57-5.1 11.39-19.6 19.91-29.83 25.97-7.2 4.27-28.22 20.36-16.07 28.29l13.06 8.53c1.41 10.05-9.09 10.6-8.55 19.79 0.39 6.74 9.4 7.2 8.87 14.5-1.92 26.19 6.07 47.06 20.45 68.36-3.67 41.27 12.39 121.22 25.52 160.03l5.68 16.78 3.85 13.97c-19.74 4.7-38.97 10.42-58.76 16.69-21.97 6.97-44.06 13.34-67.3 12.72-7.62-1.12-12.37-10.53-14.53-16.8-6.58-19.2 6.68-34.33 7.25-25.71l0.67 10.17c39.99-3.28 56.24-24.56 81.08-51.76-4.57-11.45-8.39-21.3-11.19-32.51l-13.59-54.4-5.13-14.71c-0.92-2.64 0.3-7.26-0.34-10.06-3.35-14.81-7.55-28.59-12.67-42.81-3.44-9.57-9-18.37-13.17-27.28 2.14-18.5 3.52-36.78-15.68-47.44-1.04-4.81 5.59-19.73 2.17-24.55l-6.83-9.65c-14.29 4.11-7.68 0.4-22.38 3.23-7.15 1.37-10.85 5.6-11.74 12.62-1.9 15.13 13.04 9.12 6.88 21.89-5.56 11.54-7.4 24.31-8.22 37.18-0.97 15.24-1.77 29.86-3.77 44.97-0.7 5.3-3.69 9.99-4.96 14.55l-5.87 21.1c-1.44 5.19-2.55 10.71-1.12 15.81 4.02 14.27-1.63 15.86-2 25.55-0.09 2.46-1.73 5.45-2.04 7.63-3.36 23.73 7.96 63.68 3.74 77.2-0.1 0.34-1.36-0.39-1.45-0.76l-0.93-4.12c-16.58 4-27.33-3.29-43.29-2.6-22.48 6.27-43.78 14.78-66.72 17.55-12.37 1.5-24.14-4.98-29.48-15.32-2.35-4.56-1.61-27.66 5.9-32.23 9.98-0.04 3.07 13.87 15.86 12.42 31.12-3.54 48.74-19.45 77.57-30.42-2.12-9.5-1.87-18.9 0.17-28.2l6.32-28.74c4.59-20.9-7.04-17.51-4.95-36.68 1.54-14.15 1.96-28.05 2.02-42.41 0.06-14.75 8.89-35.85 10.16-57.54 0.29-4.98 1.55-10.35 2.62-14.91-1.52-6.32-3.53-12.3-2.64-19.06 0.9-6.82 0.01-13.33-0.7-19.8-0.78-7.16 0.7-14.35-2.74-22.22-67.41 66-172.31 68.32-242.4 6.15-40.87-36.25-64.28-88.9-64.15-144.4-0.12-55.83 23.59-109.03 65.38-145.45 51.41-44.79 122.82-56.42 185.78-29.97 14.65 6.15 27.81 14.63 40.84 24.14 3.24-8.24 6.08-15.32 9.92-22.27 13.02-23.53 2.07-23.54 17.57-35.06 4.51-3.36 11.14-6.73 12.73-12.49 1.32-4.82 1.35-9.44 4.9-13.31 4.4-4.8 8.72-9.33 13.4-13.92 9.59-9.4 17.47-18.37 14.7-32.28 5.86-2.06 13.44-7.42 16.46-8.14-3.25 3.28-5.99 7.11-6.97 11.89l-2.75 13.36c-22.99 14.96-34.42 38.93-43.81 63.86-6.34 2.37-12.25 6.34-14.99 13.19l-9.82 24.53c8.16-5.7 13.25-12.9 18.56-20.59 17.96-26.02 23.66-48.81 45.94-73.92 1.83-2.07 4.67-3.87 6.6-4.84-15.61 22.81-32.53 45.22-43.45 71.08 32.63-31.72 61.56-63.42 91.7-95.89-4.25-10.66-9.58-19.86-16.58-29.32-1.33 1.03-2.54 3.23-2.57 4.83l-0.26 13.99-26.11 32.28c-2.84-6.6 8.69-20.67 14.71-24.97-2.79-0.51-7.79-0.05-10.2 0.52 7.21-7.28 14.87-14.77 14.04-25.99-0.61-8.21-6.46-14.2-12.82-19.69 12.58-2.41 8.8-8.4 19.62-14.88 1.25-5.57 0.31-12.26-1.81-18.15-8.2 3.48-16.26 4.73-24.36 4.43-0.16-8.21-4.37-7.81-3.98-16.29 4.15-1.11 7.49 6.64 8.02 11.74 22.13-4.3 45.89-13.63 59.94-32.1 0.56-0.74 1.19-2.89 0.58-3.28l-2.2-1.42c-9.09-5.87 10.02-3.26 7.89-11.23-13.12 1.63-24.98 3.04-37.44 3.41-4.16 0.13-9.01-2.09-9.74-6.24-0.88-5.07 0.33-9.4 2.87-14.26 5.96 2.62 5.36 6.23 10.13 6.2 2.2-0.01-4.77-13.67 4.9-23.25-5.88-6.48-9.93-12.89-13.93-20.06-9.13 1.55-19.04 2.52-27.13-2.3-4.32-2.58-8.25-2.26-12.44 0.35l-0.98-0.05 2.18-6.01c-9.38-21.01-2.22-51.13 13.94-66.55l1.15 0.01c-4.38 8.23-9.78 19.92-3.04 29.29 3.85 5.34 11.3 6.37 17.37 4.96-13.8-15.25-10.4-28.65-2.5-45.22l-0.65-0.58c13.65-17.47 31.75-33.99 56.41-29.55 9.03 1.63 15.59 7.23 21.44 14.78 8.42-16.99 3.05-38.09-1.77-55.93 16.15 4.66 12.72 3.33 27.64-2.15 2.42 4.74 4.61 10.25 8.66 13.32 6.73 5.11 14.11-2.66 17.98-2.98 1.03 4.43 2.26 11.26 7.36 12.67 5.19 1.44 11.44-0.75 17.09-0.8-2.82 4.67-5.79 9.13-6.73 14.03-0.83 4.29 1.65 7.16 5.29 8.08l11.5 2.9-8.27 10.14c-1.86 2.29-1.83 6.66-0.19 9.19 1.14 1.78 4.31 4.46 6.67 4.56l14.41 0.61c-1.15 4.53-8.65 9.69-5.79 13.68 2.44 3.42 10.65 0.74 9.73 7.03-16.72-0.11-32.78 1.19-49.32 3.92-10.4 1.72-20.03 4.03-28.36 11.69 5.8 7.09 12.03 13.2 18.97 18.71 11.65 9.24 17.12 23.2 15.12 38.07l-34.4 36.26-34.34 37.67c5.76 13.88 10.4-7.1 18.99-3.3 2.18 0.96 3.26 6.64 2.54 9.16l-3.85 13.58c-11.56 5.15-23.39 7.49-36.3 7.45-0.86 0-3.13 1.19-2.9 2 0.23 0.81 1.96 2.43 2.84 2.41l12.02-0.27c-1.55 11.28-1.61 22.58 4.06 32.89l7.42 6.75c6.93 6.29 10.02 15.08 13.9 23.12zm52.07-260.49c-4.24 3.59-4.1 14.15 1.17 16.04 7.3 2.63 15.75-0.17 23.71 1.05l3.74-13.31c-5.44-0.67-9.43-0.83-12.4-4.07-5.8-6.33-4.7-14.79-0.93-22.23-5.59-0.82-8.84-3.49-10.9-7.34-2.17-4.05-1.46-7.65 0.33-12.51-8.85-1.27-14.93-6.32-19.7-12.73-7.28 6.15-21.97-2.01-24.1-10.58-10.05 2.21-8.01 6.9-17.44 4.25l2.7 14.82 2.83 17.35c6.07 3.18 10-2.58 14.69-2.99 0.17 4.35-0.42 7.86 1.35 11.39 1.77 3.53 10.99-1.74 13.85-1.55-0.68 14.68 11 5.6 9.01 17.24l-0.46 2.72c-0.39 2.24 11.48-0.67 12.55 2.45zm-68.89-14.05c-5.2-3.43-11.28 0.86-14.05 4.93-4.81 7.08-7.22 14.34-6.33 22.3-3-7.14-4.78-14.96-2.72-22.07 3.18-5.2 12.75-6.52 11.51-15.85-3.55-1.98-10.16-2.34-14.56-1.16-16.46 4.43-13.71 35.15-8.83 48.01 3.68 9.72 12.78 16.29 23.22 14.44-1.31-6.61-3.57-11.56-6.24-17.37 3.11 2.63 6.92 5.33 10.93 7.29l10.51-15.2c5.38-7.79 5.38-19.5-3.44-25.32zm32.36 43.49l30.22-10.98c-6.02-24.26-25.33-40.77-49.66-43.21 1.82 12.09 0.14 23.38-4.68 34.14l-10.71 23.89c12.65 2.34 23.36 0.32 34.83-3.84zm-58.84 9.77c-8.34-8.4-13.86-16.53-16.37-26.75-3.82-10.19-1.96-20.27 2.51-30.57-21.32 4-18.6 31.71-12.16 45.79 4.61 10.07 15.85 15.38 26.02 11.53zm-19.07 4.73c-15.77-13.37-16.85-30.52-17.33-49.6-9 10.52-10.29 25.27-5.21 37.81 3.69 9.13 12.73 14.07 22.54 11.79zm-9.89 36.96c28.71-6.43 62.69-20.76 89.74-32.77-14.4-14.72-46.82-7.65-63.4-3.41-19.3 4.93-48.99 11.69-66.37-0.29-1.58 7.28-2.12 14.2-0.8 21.21 3.59 19.16 25.92 18.6 40.83 15.26zm69.55 58.61c11.4-3.54 37.18-35.93 44.46-46.54 3.86-5.64 4.91-11.28 3.89-17.74-1.56-9.9-8.44-17.25-18.94-18.35-10.49-1.11-21.96-0.28-32.08 3.84-21.17 8.62-41.25 17.26-63.5 25.04 6.33 11.28 12.55 21.82 19.68 32.04 10.1 14.46 27.69 27.56 46.49 21.71zm-42.59 67.38c-4.67-11.98 3.03-16.91-0.99-30.56-2.89-2.92-21.8 7.78-24.1 9.33-5.28 3.56-3.68 23.45-1.97 30.66 10.43-1.4 19.41-2.14 27.06-9.43zm-29.47 29.45l16.04-6.12c8.22-3.13 16.45-4.29 25.36-4.13 5.05-5.01 6.99-12.74 4.05-19.46-1.09-2.49-4.65-4.15-7.01-4.11-6.1 20.84-34.58 12.96-50.52 21.31-1.41 5.86 6 14.83 12.08 12.51zm-0.39-20.01l-1.29-5.46c-0.71 1.12-2.05 3.78-2.43 5.1-0.29 1.02 3.34 0.77 3.72 0.36zm32.84 43.36c5.99-1.54 11.82-6.36 13.58-11.73 1.91-5.81 1.07-13.66-3.21-17.57-8.46-0.46-17.04 0.98-24.28 3.83zm-6.65 8.69c3.44-11.79-4.1-24.32-15.76-27.29 2.36 10.34 7.8 20.03 15.76 27.29zm31.86-20.68c0-0.26-0.21-0.47-0.47-0.47-0.26 0-0.47 0.21-0.47 0.47 0 0.26 0.21 0.47 0.47 0.47 0.26 0 0.47-0.21 0.47-0.47zm-63.85 71.85c11.67-11.66 21.11-23.73 30.67-36.25 12.84-9.56 26.33-19.09 32.51-35.35-24.72 18.07-46.4 38.17-67.39 59.58-34.12 34.8-66.49 70.14-98.99 106.97 25.92-16.81 46.54-38.33 67.92-59.69zm39.56-24.52c20.2-1.91 18.78-18.16 42.07-17.22 1.46-2.12-1.05-9.35-4.5-7.99-11.9 4.72-18.66 16.4-41.28 17.29 1.01 3.12 2.13 5.74 3.71 7.92zm-81.37 111.79l1.01 0.03-18.46 26.88c-9.05 13.18-17.73 26.36-29.28 37.51-6 5.81-14.72 8.22-21.74 12.37-4.37 2.27-7.58 5.87-8.89 10.66 12.37 17.52 22.4 35.87 31.51 55.22l50.78-49.09c20.42-19.74 32.51-33.1 42.38-60.28l13.02-9.89c3.11-2.36 7.29-4.38 10.98-6.04 3.92-17.58 9.89-29.1 11.41-47.22l14.98-4.15-3.61-10.65c-0.4-1.16 1.83-4.13 2.68-3.66 1.71 9.84 6.02 12.61 6.22 17.53-6.15 0.14-12.13 2.07-16.33 6.26-3.23 17.45-8.42 28.8-13.18 46.4-9.79 2-17.68 8.86-22.13 18.3l-15.62 33.13c-0.99 2.09-3.68 3.64-5.71 4.54-10.15 4.48-19.39 10.15-25.22 20.55 17.42 2.06 33.85 4.29 50.74 5.23 15.67 0.88 29.44-5.78 39.06-17.86-0.08 3.92-2.37 7.46-4.59 11.57-0.59 1.09 3.24 2.62 4.2 1.79l15.83-13.72c3.99-3.46 6.7-8.04 8.9-12.88-6.5-11.13-6.93-23.27-6.36-35.8 0.62-13.65 2.05-26.44 9.2-38.59-2.35-3.85-4.69-7.07-7.72-9.53-6.88-5.6-7.2-14.81-0.95-20.88 3.96-3.85 3.88-8.05 3.02-13.11-5.06-29.79 14.02-55.89 0.62-79.02l-24.74 14.16c-5.4 3.09-11.41 2.23-16.22-3.37-18.41 16.34-37.12 31.45-54.16 49.22l-48.04 50.09c-15.89 16.57-18.06 41.92-12.79 63.63 13.38-17.22 25.16-34.13 39.2-49.33zm-143.19-24.94c-33.92-8.52-80.69 1.42-111.4 18.1-10.21 5.55-19.52 12.16-25.71 22.53 42.25-34.12 82.9-38.64 137.11-40.63zm4.97 0.51c17.69 7.54 34.21 14.65 52.86 20.11-11.77-12.56-35.63-25.8-52.86-20.11zm-17.19 18.58c6.07-3.1 9.58-4.99 12.42-10.76l-18.43-2.58c-2.54-0.35-6.16 0.84-8.68 1.84l4.64 3.41zm-36.3-2.73l18.16-0.13c-3.16-4.35-6.89-7.01-11.3-9.7l-6.93 5.65c-0.78 0.64-1.13 4.19 0.07 4.18zm-15.97 3.65c4.65-1.89 8.42-4.75 10.68-9.25-6.79-0.44-14.4-0.23-18.95 5.02-0.11 3.07 5.12 5.5 8.27 4.23zm87.65 4.04l-4.91-13.43-9.48 0.42c-4.24 0.19-8.6 3.55-8.18 7.99l14.9 5.36c2.01 0.73 6.16 0.23 7.67-0.34zm27.41 6c-3.05-4.8-6.76-8.88-11.42-10.62l-12.22-4.57c1.11 6.72 3.56 11.49 7.83 15.52 4.33 4.09 11.39 5.18 15.81-0.33zm-154.35 1.89c7.49-0.68 11.76-6.17 13.94-12.08l-12.55 4.04c-1.54 0.49-3.17 2.17-3.55 3.43-0.37 1.23 0.61 4.75 2.16 4.61zm30.26-10.23c-1.72-1.98-6.25-2.3-8.23-0.85-1.49 1.09-3 3.33-4.3 5.71 4.75 0.07 10.39 0.06 12.53-4.86zm132.75-1.14c0-0.26-0.22-0.48-0.48-0.48-0.26 0-0.47 0.22-0.47 0.48 0 0.26 0.21 0.47 0.47 0.47 0.26 0 0.48-0.21 0.48-0.47zm-5.48 280.77l-0.25-1.13c14.89-11.8 28.83-24.37 39.89-40.3 18.05-26 22.84-57.77 10.51-87.82l-12.95 12.84c-3.01 2.98-6.18 5.54-9.93 7.95-2.1 1.35-6.09-0.1-6.93-2.48l-4.26-12.12c-1.37-3.9-5.64-9.31-10.66-8.28-6.83 1.41-12.58 6.25-18.42 10.64 8.24 21.55-16.39 32.23-30.14 43.68l-1.63 16.57c-0.32 3.23-2.05 7.35-4.63 9.43-6.23-1.47-10.85-6.22-14.61-11.29 1.57-7.79 9.47-11.53 6.48-18.56-11.09 4.24-8.12 21.86-18.42 32.37-5.68-3.98-9.74-9.06-12.11-15.68l7.38-11.75c2.34-3.73 4.39-7.44 4.15-12.14-14.89 4.08-15.9 20.43-23.04 31.62-7.78-5.29-9.2-14.26-4.29-21.2l11.27-15.91c3.1-4.38 5.51-8.99 7.59-13.94-8.89-1.59-16.78 1.44-22.55 7.62l-12.41 13.28c-2.15 2.3-8.76-0.59-8.39-4.01 2.25-20.8 31.79-28.88 44.76-44.33-5.63-4.24-20.83-12.2-21.11-19.02-0.22-5.45 3.12-11.66 8.49-14.31 9.53 18.16 32.92 21.01 49.46 11.23 6.82 4.48 13.52 7.64 21.11 8.61l7.45-7.52c6.52-6.59-5.34-4.86-4.36-13.73 16.7-11.05 35.23-22.51 45.95-41.08-37.49-52.2-117.3-66.75-173.59-41.14-20.99 9.55-37.29 27.26-50.44 45.76-18.37 25.85-29.67 55.77-33.64 87.07-4.45 35.09 6.04 68.6 28.8 94.89 32.06 37.02 76.08 57.94 126.19 52.45l0.02 1.67c-15.83 2.01-31.75 2.69-48.17-0.27-20.44-3.7-40.54-10.8-56.59-24.32-16.39-13.81-29.17-30.7-41.05-48.14-5.8-8.51-8.53-17.31-10.84-27.21-8.16-34.95-5.22-70.68 9.69-103.37 9.55-20.94 22.12-39.62 38.2-56.02 47.07-47.97 115.49-51.04 173.57-22.59 16.84 8.24 30 28.01 46.85 37.89-19.01-43.43-64.82-61.5-109.02-64.52-36.91-2.52-73 6.21-103.85 26.47-31.27 20.54-53.06 59.04-63.39 94.38-8.96 30.68-10.17 62.53-2.77 93.63 6.17 25.93 29.27 55.37 47.65 74.17 32.04 32.77 77.14 50.69 123.31 44.67 48.78-6.36 96.09-35.03 115.16-81.68-5.73-1.29-9.49 1.98-12.97 5.58-8.01 8.3-16.64 16.29-26.52 21.39zm43.66-273.83c-14.2 7.01-12.19 30.96-0.75 38.68-1.49-14.71 6.97-25.95 0.75-38.68zm-41.42 14.44l4.63-10.52c-2.57-2.05-6.05-1.5-7.69 0.1-2.1 2.05-3.04 5.44-2.04 7.98zm-166-7.56c-5.25-3.49-9.85-0.27-14.21 2.37-3.6 2.18-6.23 6.09-3.47 9.96 7.56-9.9 13.63-5.83 17.68-12.33zm-41.28 31.46l9.71-8.77c2.84-2.57 4.76-6.59 1.97-9.85l-9.71 9.54c-2.49 2.44-3.65 7.14-1.97 9.08zm241.78 9.69l-4.26-13.67c-0.75-2.41-4.3-4.36-6.31-3.38-4 3.31 6.63 17.74 10.57 17.05zm-11.88 109.76c8.6-2.56 13.28-8.54 14.57-15.98-6.16-13.21-11.88-25.83-19.95-37.62-3.64-5.33-9.26-9.83-15.82-9.6-7.27 0.26-13.6 4.38-18.14 10.13 7.27 11.85 15.85 21.31 25.33 30.62 6.55 6.43 10.64 14.03 14.01 22.45zm58.59-48.06c19.28 4.9 37.06 5.35 56.06 3.78 16.07-0.53 33.59-3.17 48.2-9.2 1.17-0.48-0.07-3.88-1.1-4.03-6.08-0.9-7.54 10.34-56.76 3.88-11.32-1.48-37.97-4.36-46.4 5.57zm-6.99 39.47c21.12 0.19 41.86 0.24 62.91-1.93 17.85-1.84 52.4-9.8 49.24-34.34-13.57 2.9-26.78 4.17-40.68 4.22l-50.93 0.2c-9.21 0.03-17.79 0.94-26.99 2.01-2.5 11.66 6.96 16.64 6.45 29.84zm-132.06 35.13c1.91 2.87 2.96 8.38 2.19 11.63l-4.19 17.79c2.24 1.27 5.26 2.28 8.27 2.57-2.03-25.95 15.07-27.03 32.72-47.71 5.68-6.65-2.19-9.25-2.12-15.32 5.75-4.8 11.55-8.51 18.19-11.91 2.45-1.26 5.64-4.36 5.83-7.08 0.09-1.18-2.2-3.39-3.36-3.33-5.87 0.33-5.57 3.42-9.75 1.9-0.92-0.34-1.97-2.25-2.57-3.67l7.81-2.7c-3.18-6.07-9.86-5.29-14.8-2.01l-11.98 7.95c-20.21-15.32-46.87 0.84-69.88-16.77-0.99 5.12 1.9 9.46 5.94 11.57l16.31 8.51c-5.25 17.42-22.86 18-33.23 30.16 10.36 1.1 14.48-6.2 26.23-2.72 1.28 2.37 2.78 5.72 3.79 8.5l-15.7 17.62c-4.49 5.04-7.22 12.15-3.86 18.7 5.61-16.75 17.49-25.13 33.18-32.3-1.05 13.17-12.24 23.53-17.74 35.58l3.17 2.98c1.85 1.74 4.31 3.61 6.74 3.55l8.72-25.46c1.36-3.95 5.72-7.73 10.09-8.03zm105.36 53.69c9.1-13.07 13.81-26.85 18.71-41 6.41-23.36 7.4-47.04-5.43-68.36-3.57 8.95-8.13 6.81-4.7 15.04 4.8 11.52 6.24 24.16 3.6 36.65zm119.82-86.73c6.88-4 13.28-7.94 18.06-14.61-12.98 6.22-25.25 9.94-39.04 12.19-23.1 3.77-45.55 6.37-69.1 11.89 27.56 5.7 64.65 3.26 90.08-9.47zm51.83 138.77c-10.36-25.39-23.67-51.84-15.23-78.08-13.1-20.55-6.07-46.12-21.6-62.71-31.12 17.42-70.41 18.98-105.66 19.56 1.1 34.43-21.15 55.51-33.3 84.8-9.8 19.8 1.95 48.18 7.87 68.31 49.57 5.01 137.35 17.4 167.92-31.88zm-332.93-118.89c-5.71-0.84-8.71 2.57-12.03 6.88-0.84 1.07-0.02 4.35 1.27 4.85 4.01 1.57 10-7.9 10.76-11.73zm195.43 209.97c0.54-9.24 10.95-13.26 5.3-22.2-5.06-8-3.89-17.08-2.41-26.71-4.47-1.51-9.3-2.75-13.92-3.22l-26.83-2.71c2.36 12.09 3.19 23.4 1.68 35.32l-5.64 44.42c3.7 8.07 15.22 11.41 23.42 9.18 11.56-3.14 21.15-7.52 21.1-20.71-0.02-4.3-2.96-9.08-2.7-13.37zm107.54 3.23c-6.88-6.39-14.75-9.28-23.88-11.21 9.93-8.38 19.13-3.37 22.39-14.3 0.57-1.89 0.7-4.68-0.35-6.23-0.85-1.26-4.78-1.72-5.43-0.33l-2.8 5.95c-6.93-5.35-7.84-2.92-13.42-7.03 12.09-2.39 4.61-10.5 9.11-24.85-16.88 3.61-24.15 7.01-42.11 6 0.21 4.1 0.18 8.14-0.29 12.07l-2.18 18.36c19.9 5.1 18.52 29.25 14.5 45.28 16.77 12.28 16.71 35.29 26.03 54.21 8.77-0.06 26.93 1.72 33.7-4.32-4.05-28-21.16-46.14-15.27-73.6zm-214.73 227.4c32.36-5.04 55.1-16.46 88.33-14-3.27-31.13-2.43-60.8 2.73-91.01l15.27-89.41c-12.93 5.46-32.72 4.68-43.56-4.18-0.06 51.12-1.43 100.72-6.62 151.41-18.54 0.84-37.63 10.63-54.37 18.9-14.24 7.18-29.9 10.15-44.32-0.08-1.85 10.04 0.71 20.53 8.34 27.93 11.35 2.06 22.24 1.6 34.2 0.44zm162.29 60.48c36.36-2.05 74.81-18.76 108.26-32.29-4.81-14.46-10.83-27.34-17.66-40.39-4.69-8.95-7.27-17.95-8.56-28l-5.74-67.7c-1.14-13.38-4.11-26.18-10.87-38.11-4.8 1.88-9.11 3.14-13.97 3.17l-18.63 0.1c4.13 22.66 8.62 43.83 15.05 65.75l19.31 65.82c-6.82 4.14-12.63 8.11-18.61 12.84l-30.44 24.11c-12.52 9.91-27.94 13.08-43.59 10.84-0.61 15.21 11.05 24.67 25.45 23.86z"/>
					<path id="&lt;Path&gt;" class="s2" d="m508.53 391.14c-7.65 7.29-16.63 8.03-27.06 9.43-1.71-7.21-3.31-27.1 1.97-30.66 2.3-1.55 21.21-12.25 24.1-9.33 4.02 13.65-3.68 18.58 0.99 30.56z"/>
					<g id="&lt;Group&gt;">
						<path id="&lt;Path&gt;" class="s5" d="m480.64 1265.89c-14.4 0.81-26.05-8.65-25.44-23.85 15.64 2.24 31.07-0.94 43.58-10.85l30.45-24.11c5.97-4.73 11.79-8.7 18.6-12.84l-19.31-65.82c-6.43-21.92-10.91-43.09-15.05-65.74l18.63-0.11c4.86-0.02 9.17-1.29 13.98-3.16 6.75 11.92 9.72 24.72 10.86 38.1l5.74 67.7c1.29 10.05 3.87 19.05 8.56 28 6.84 13.05 12.85 25.93 17.66 40.39-33.45 13.53-71.9 30.24-108.26 32.29z"/>
						<path id="&lt;Path&gt;" class="s5" d="m318.35 1205.41c-11.96 1.17-22.85 1.63-34.19-0.44-7.64-7.39-10.2-17.88-8.35-27.93 14.42 10.23 30.08 7.26 44.33 0.08 16.73-8.27 35.83-18.05 54.37-18.89 5.18-50.7 6.55-100.3 6.61-151.41 10.85 8.86 30.64 9.63 43.57 4.17l-15.27 89.42c-5.16 30.2-6.01 59.88-2.74 91-33.23-2.45-55.96 8.96-88.33 14z"/>
						<path id="&lt;Compound Path&gt;" fill-rule="evenodd" class="s6" d="m533.08 978.01c-5.89 27.46 11.22 45.61 15.28 73.61-6.78 6.03-24.94 4.25-33.7 4.32-9.32-18.92-9.27-41.93-26.03-54.21 4.02-16.04 5.39-40.19-14.5-45.28l2.17-18.37c0.47-3.93 0.5-7.97 0.3-12.06 17.95 1 25.22-2.39 42.11-6.01-4.51 14.35 2.98 22.47-9.11 24.85 5.57 4.11 6.48 1.68 13.41 7.03l2.8-5.95c0.65-1.38 4.58-0.93 5.43 0.34 1.05 1.55 0.92 4.34 0.35 6.23-3.26 10.92-12.46 5.91-22.38 14.29 9.12 1.93 17 4.82 23.87 11.21zm-16.16 37.46c-3.54-4.46-7.85-9.11-14.08-8.99-1.42 4.52 10.64 14.71 14.08 8.99zm18.07 23.53c-7.54 9.26-11.14 3.8-17.62 10.35 2.55 6.8 22.83-5.42 17.62-10.35z"/>
						<path id="&lt;Compound Path&gt;" fill-rule="evenodd" class="s7" d="m425.54 974.79c-0.26 4.29 2.69 9.07 2.7 13.37 0.05 13.18-9.53 17.56-21.1 20.7-8.19 2.23-19.72-1.11-23.41-9.17l5.63-44.42c1.51-11.93 0.69-23.24-1.68-35.32l26.83 2.7c4.63 0.47 9.46 1.71 13.92 3.22-1.48 9.64-2.65 18.71 2.41 26.71 5.65 8.94-4.76 12.96-5.3 22.21zm-13.62 16.06c0.82-3.63 0.79-9.52-2.76-11.73-3.13-1.95-6.55-3.56-10.22-5.43 4.09-8.67 13.48-12.85 22.63-14.54 1.23-1.63 0.88-5.42-0.74-6.54l-15.74 8.85c-5.62 3.15-9.68 7.72-13.42 13.63 8.04 8.6 13.12 7.51 20.25 15.76z"/>
						<path id="&lt;Path&gt;" class="s8" d="m534.99 1039c5.21 4.93-15.07 17.15-17.62 10.35 6.48-6.55 10.08-1.09 17.62-10.35z"/>
						<path id="&lt;Path&gt;" class="s8" d="m516.92 1015.47c-3.44 5.72-15.5-4.47-14.08-8.99 6.23-0.12 10.54 4.53 14.08 8.99z"/>
						<path id="&lt;Path&gt;" class="s9" d="m411.92 990.85c-7.13-8.25-12.21-7.16-20.25-15.76 3.74-5.91 7.8-10.48 13.42-13.63l15.74-8.85c1.62 1.12 1.97 4.91 0.74 6.54-9.15 1.69-18.54 5.87-22.63 14.54 3.67 1.87 7.09 3.48 10.22 5.43 3.55 2.21 3.58 8.1 2.76 11.73z"/>
					</g>
					<g id="&lt;Group&gt;">
						<path id="&lt;Path&gt;" class="s10" d="m454.83 196.6c1.14-2.15 4.07-4.62 5.45-6.74 1.3-2.02 3.6-3.62 5.73-4.81l0.65 0.58c-7.9 16.57-11.3 29.97 2.5 45.22-6.07 1.41-13.52 0.38-17.37-4.96-6.74-9.37-1.34-21.06 3.04-29.29z"/>
						<path id="&lt;Path&gt;" class="s11" d="m454.83 196.6l-1.15-0.01c2.24-2.14 4.28-4.79 6.6-6.73-1.38 2.12-4.31 4.59-5.45 6.74z"/>
						<path id="&lt;Compound Path&gt;" fill-rule="evenodd" class="s6" d="m551.12 323.76c-18.8 5.85-36.39-7.25-46.49-21.71-7.13-10.22-13.35-20.76-19.68-32.04 22.25-7.78 42.33-16.42 63.5-25.04 10.12-4.12 21.59-4.95 32.08-3.84 10.5 1.1 17.38 8.45 18.94 18.35 1.02 6.46-0.03 12.1-3.89 17.74-7.28 10.61-33.06 43-44.46 46.54zm13.75-33.31c3.21-5.5-0.21-10.67-5.69-12.6-7.84-2.76-15.22-5.9-21.58-11.17 0.39 16.36 20.69 12.41 27.27 23.77zm-19.91 6.79c-12.45-3.14-23.57-8.69-29.58-20.48-1.5 5.06 0.06 10.53 3.96 14.66 6.2 6.57 19.19 12.1 25.62 5.82z"/>
						<path id="&lt;Path&gt;" class="s6" d="m481.57 265.15c-14.91 3.34-37.24 3.9-40.83-15.26-1.32-7.01-0.78-13.93 0.8-21.21 17.38 11.98 47.07 5.22 66.37 0.29 16.58-4.24 49-11.31 63.4 3.41-27.05 12.01-61.03 26.34-89.74 32.77z"/>
						<path id="&lt;Path&gt;" class="s2" d="m605.9 184.25c-1.07-3.12-12.94-0.21-12.55-2.45l0.46-2.72c1.99-11.64-9.69-2.56-9.01-17.24-2.86-0.19-12.08 5.08-13.85 1.55-1.77-3.53-1.18-7.04-1.35-11.39-4.69 0.41-8.62 6.17-14.69 2.99l-2.83-17.35-2.7-14.82c9.43 2.65 7.39-2.04 17.44-4.25 2.13 8.57 16.82 16.73 24.1 10.58 4.77 6.41 10.85 11.46 19.7 12.73-1.79 4.86-2.5 8.46-0.33 12.51 2.06 3.85 5.31 6.52 10.9 7.34-3.77 7.44-4.87 15.9 0.93 22.23 2.97 3.24 6.96 3.4 12.4 4.07l-3.74 13.31c-7.96-1.22-16.41 1.58-23.71-1.05-5.27-1.89-5.41-12.45-1.17-16.04z"/>
						<path id="&lt;Compound Path&gt;" fill-rule="evenodd" class="s12" d="m569.37 213.69c-11.47 4.16-22.18 6.18-34.83 3.84l10.71-23.89c4.82-10.76 6.5-22.05 4.68-34.14 24.33 2.44 43.64 18.95 49.66 43.21zm-14.55-22.28l7.09-14.79c1.56-3.28-0.15-7.75-3.45-8.54l-4.56 13.32c-1.14 3.32-2.58 7.03 0.92 10.01zm2.49 14.75c9.47-1.24 24.18-20 16.68-27.35-3.63 15.74-11 15-16.68 27.35z"/>
						<path id="&lt;Path&gt;" class="s12" d="m537.01 170.2c8.82 5.82 8.82 17.53 3.44 25.32l-10.51 15.2c-4.01-1.96-7.82-4.66-10.93-7.29 2.67 5.81 4.93 10.76 6.24 17.37-10.44 1.85-19.54-4.72-23.22-14.44-4.88-12.86-7.63-43.58 8.83-48.01 4.4-1.18 11.01-0.82 14.56 1.16 1.24 9.33-8.33 10.65-11.51 15.85-2.06 7.11-0.28 14.93 2.72 22.07-0.89-7.96 1.52-15.22 6.33-22.3 2.77-4.07 8.85-8.36 14.05-4.93z"/>
						<path id="&lt;Path&gt;" class="s13" d="m510.53 223.46c-10.17 3.85-21.41-1.46-26.02-11.53-6.44-14.08-9.16-41.79 12.16-45.79-4.47 10.3-6.33 20.38-2.51 30.57 2.51 10.22 8.03 18.35 16.37 26.75z"/>
						<path id="&lt;Path&gt;" class="s10" d="m491.46 228.19c-9.81 2.28-18.85-2.66-22.54-11.79-5.08-12.54-3.79-27.29 5.21-37.81 0.48 19.08 1.56 36.23 17.33 49.6z"/>
						<path id="&lt;Path&gt;" class="s9" d="m544.96 297.24c-6.43 6.28-19.42 0.75-25.62-5.82-3.9-4.13-5.46-9.6-3.96-14.66 6.01 11.79 17.13 17.34 29.58 20.48z"/>
						<path id="&lt;Path&gt;" class="s9" d="m564.87 290.45c-6.58-11.36-26.88-7.41-27.27-23.77 6.36 5.27 13.74 8.41 21.58 11.17 5.48 1.93 8.9 7.1 5.69 12.6z"/>
						<path id="&lt;Path&gt;" class="s8" d="m557.31 206.16c5.68-12.35 13.06-11.61 16.68-27.36 7.5 7.36-7.21 26.11-16.68 27.36z"/>
						<path id="&lt;Path&gt;" class="s9" d="m554.83 191.41c-3.51-2.99-2.06-6.69-0.93-10.01l4.57-13.33c3.29 0.8 5.01 5.27 3.44 8.54z"/>
					</g>
					<g id="&lt;Group&gt;">
						<path id="&lt;Compound Path&gt;" fill-rule="evenodd" class="s6" d="m432.08 591.1c0.27-0.12 1.24-0.57 0.9-0.66-0.33-0.07-1.3-0.31-1.45-0.41-0.04 0.17-0.37 0.85-0.46 1.04-14.04 15.2-25.83 32.11-39.21 49.33-5.26-21.71-3.09-47.06 12.8-63.63l48.04-50.09c17.04-17.77 35.75-32.88 54.16-49.22 4.81 5.6 10.81 6.45 16.21 3.37l24.75-14.16c13.4 23.13-5.69 49.23-0.63 79.02 0.86 5.06 0.94 9.26-3.01 13.1-6.25 6.07-5.93 15.29 0.95 20.89 3.03 2.46 5.36 5.68 7.72 9.53-7.15 12.15-8.58 24.93-9.21 38.59-0.57 12.52-0.13 24.67 6.36 35.8-2.19 4.84-4.91 9.42-8.9 12.88l-15.83 13.72c-0.95 0.83-4.78-0.7-4.19-1.79 2.22-4.11 4.5-7.65 4.59-11.57-9.63 12.08-23.39 18.74-39.06 17.86-16.9-0.94-33.33-3.17-50.75-5.23 5.84-10.4 15.08-16.07 25.22-20.55 2.03-0.9 4.73-2.45 5.72-4.54l15.62-33.13c4.45-9.44 12.34-16.3 22.12-18.3 4.77-17.6 9.95-28.95 13.18-46.4 4.21-4.19 10.19-6.12 16.34-6.26-0.2-4.92-4.51-7.69-6.22-17.53-0.86-0.47-3.08 2.5-2.69 3.66l3.62 10.65-14.98 4.15c-1.53 18.12-7.5 29.64-11.42 47.22-3.68 1.66-7.87 3.68-10.97 6.04l-13.02 9.89c-9.87 27.18-21.96 40.54-42.38 60.28l-50.78 49.09c-9.11-19.36-19.14-37.71-31.51-55.22 1.31-4.8 4.51-8.39 8.89-10.66 7.02-4.15 15.73-6.56 21.74-12.37 11.55-11.16 20.22-24.34 29.28-37.52zm37.64-30.72c5.36-12.27 5.84-10.41 4.77-24.42 20.85-9.5 14.81-31.59 33.54-36.53-5.98-2.12-12.07 0.87-15.02 6.25l-8.63 15.73c-3.46 6.33-8.39 11.32-14.67 14.54l-0.02 16.3c-7.41 6.96-15.45 12.6-22.01 21.49zm14.03 13.6c3.95-6.18 6.43-11.45 9.06-17.4 0.45-3.54 0.66-6.44-0.76-10.24-3.61 6.73-13.69 20.87-8.3 27.64zm-50.64 15.05c3.85-2.55 6.32-5.22 8.32-9.16-3.17 2.7-6.09 5.8-8.32 9.16zm-12.4 70.04c8.66-13.64 17.17-26.1 27.73-39.16 3.27 5.4 0.2 16.07 6.6 16.48 3.28-11.62 14.48-32.81 6.48-42.85l-2.47 15.91c-0.71 4.58-3.09 8.1-6.34 12.14l-2.1-6.98c-0.72-2.42-4.15-4.57-6.52-2.95-15.49 36.19-37.48 60.99-67.13 88.34 17.11-4.85 34.21-25.91 43.75-40.93zm74.65 17.1c3.38-2.65 4.59-6.86 2.2-10.62-6.99 17.22-26.85 13.39-42.13 20.63 11.19 6.16 31.06-3.05 39.93-10.01zm-119 24.71c0-0.26-0.21-0.47-0.48-0.47-0.26 0-0.47 0.21-0.47 0.47 0 0.26 0.21 0.47 0.47 0.47 0.27 0 0.48-0.21 0.48-0.47z"/>
						<path id="&lt;Compound Path&gt;" fill-rule="evenodd" class="s5" d="m563.05 883.7c-30.58 49.28-118.36 36.89-167.93 31.88-5.91-20.12-17.67-48.51-7.87-68.31 12.15-29.28 34.4-50.37 33.3-84.79 35.26-0.59 74.54-2.15 105.66-19.56 15.53 16.58 8.5 42.15 21.6 62.71-8.44 26.23 4.87 52.69 15.24 78.07zm-91.73-87.15c3.44-0.75 6.45-1.74 9.25-4.01-11.19-3.51-22.44 0.56-29.75 8.48zm43.58 92.2c-15.1-9.01-38.51 4.41-55.38 6.11-8.78-21.63-32.69-26.78-49.91-42.11 3.05-3.84 6.62-5.77 4.58-10.37l-5.69 6.38c-1.26 1.41-3.12 6.04-1.15 7.29l28.88 18.38c9.76 6.21 17.13 14.34 23.07 24.46l22.58-5.33c11.18-2.63 22.18-4.03 33.02-4.81zm9.81-27.32c-9.76-2.54-19.72-1.48-28.94-4.87-5.03-1.86-8.77-6.89-14.79-7.15 4.92 16.16 30.18 16 43.73 12.02z"/>
						<path id="&lt;Path&gt;" class="s6" d="m418.09 742.85c0.51-13.21-8.95-18.19-6.45-29.85 9.2-1.06 17.79-1.98 26.99-2.01l50.93-0.19c13.9-0.06 27.11-1.33 40.68-4.23 3.16 24.55-31.39 32.5-49.23 34.34-21.06 2.17-41.8 2.12-62.92 1.94z"/>
						<path id="&lt;Path&gt;" class="s10" d="m472.88 503.79l-35.29 35.26c-21.38 21.36-42 42.88-67.92 59.69 32.5-36.83 64.87-72.17 98.99-106.96 20.99-21.41 42.67-41.52 67.39-59.59-6.18 16.26-19.66 25.8-32.51 35.36-9.56 12.52-19 24.59-30.66 36.24z"/>
						<path id="&lt;Compound Path&gt;" fill-rule="evenodd" class="s7" d="m366.49 751.43c-3.36-8.42-7.45-16.02-14-22.45-9.49-9.31-18.07-18.77-25.33-30.61 4.53-5.75 10.87-9.88 18.13-10.14 6.56-0.23 12.18 4.27 15.83 9.6 8.06 11.8 13.79 24.41 19.94 37.63-1.29 7.43-5.97 13.41-14.57 15.97zm4.72-15.47l-0.08-8.44c-4.41-0.23-7.84-0.29-11.04 1.92-1.56 1.08 0.57 5.44 2.23 5.61z"/>
						<path id="&lt;Path&gt;" class="s10" d="m391.39 831.66l12.18-57.67c2.64-12.49 1.2-25.13-3.6-36.65-3.43-8.23 1.14-6.09 4.7-15.04 12.83 21.32 11.85 45 5.44 68.36-4.91 14.16-9.62 27.93-18.72 41z"/>
						<path id="&lt;Path&gt;" class="s14" d="m451.89 476.66c-0.68 0.85-1.8 2.57-2.73 3.03-1.93 0.97-4.77 2.77-6.6 4.84-22.28 25.11-27.98 47.9-45.94 73.92-5.31 7.69-10.4 14.89-18.56 20.59l9.82-24.53c2.74-6.85 8.65-10.82 14.99-13.19 9.39-24.93 20.82-48.9 43.81-63.86l2.75-13.36c0.98-4.78 3.72-8.61 6.97-11.89 2.41-0.57 7.41-1.03 10.2-0.52-6.02 4.3-17.55 18.37-14.71 24.97z"/>
						<path id="&lt;Path&gt;" class="s13" d="m479.06 420.59c-6.08 2.32-13.49-6.65-12.08-12.51 15.94-8.35 44.42-0.47 50.52-21.31 2.36-0.04 5.92 1.62 7.01 4.11 2.94 6.72 1 14.45-4.05 19.46-8.91-0.16-17.14 1-25.36 4.13z"/>
						<path id="&lt;Path&gt;" class="s10" d="m511.21 744.93c-25.43 12.74-62.52 15.17-90.08 9.47 23.56-5.52 46-8.12 69.11-11.89 13.78-2.25 26.05-5.96 39.03-12.18-4.77 6.66-11.18 10.6-18.06 14.6z"/>
						<path id="&lt;Path&gt;" class="s10" d="m425.09 703.37c8.43-9.92 35.07-7.05 46.39-5.56 49.23 6.45 50.68-4.79 56.76-3.89 1.03 0.15 2.27 3.55 1.11 4.03-14.61 6.04-32.14 8.67-48.21 9.21-19 1.56-36.78 1.12-56.05-3.79z"/>
						<path id="&lt;Path&gt;" class="s13" d="m511.51 443.94l-13.91-25.47c7.24-2.85 15.82-4.29 24.28-3.83 4.28 3.91 5.12 11.76 3.21 17.57-1.76 5.37-7.59 10.19-13.58 11.73z"/>
						<path id="&lt;Path&gt;" class="s10" d="m385.29 593.65c6.21 12.72-2.25 23.96-0.76 38.67-11.43-7.72-13.44-31.66 0.76-38.67z"/>
						<path id="&lt;Path&gt;" class="s14" d="m512.43 479.28c-1.58-2.19-2.69-4.8-3.71-7.92 22.63-0.89 29.38-12.57 41.28-17.29 3.45-1.36 5.96 5.87 4.51 7.99-23.3-0.94-21.88 15.31-42.08 17.22z"/>
						<path id="&lt;Path&gt;" class="s10" d="m504.86 452.62c-7.96-7.25-13.4-16.94-15.76-27.29 11.66 2.97 19.2 15.5 15.76 27.29z"/>
						<path id="&lt;Path&gt;" class="s1" d="m478.67 400.58c-0.38 0.41-4.01 0.66-3.72-0.36 0.38-1.32 1.72-3.98 2.43-5.1z"/>
						<path id="&lt;Path&gt;" class="s8" d="m432.08 591.1l-1.01-0.03c0.11-0.22 0.55-1.14 0.44-1.07-0.1 0.07 1.1 0.36 1.47 0.44 0.34 0.09-0.63 0.54-0.9 0.66z"/>
						<path id="&lt;Path&gt;" class="s10" d="m553.83 444.74c0.96 0.68 1.96 2.88 2.67 3.82-20.57 3.84-21.41 11.44-38.66 17.97 6.81-11.86 21.35-32.13 35.99-21.79z"/>
						<path id="&lt;Path&gt;" class="s7" d="m449.16 479.69c0.93-0.46 2.05-2.18 2.73-3.03l26.11-32.28 0.26-13.99c0.03-1.6 1.24-3.8 2.57-4.83 7 9.46 12.33 18.66 16.58 29.32-30.14 32.47-59.07 64.17-91.7 95.89 10.92-25.86 27.84-48.27 43.45-71.08z"/>
						<path id="&lt;Path&gt;" class="s10" d="m536.72 431.95c0 0.26-0.21 0.47-0.47 0.47-0.26 0-0.47-0.21-0.47-0.47 0-0.26 0.21-0.47 0.47-0.47 0.26 0 0.47 0.21 0.47 0.47z"/>
						<path id="&lt;Path&gt;" class="s9" d="m420.71 659.06c-9.55 15.02-26.65 36.09-43.75 40.93 29.64-27.35 51.63-52.15 67.12-88.34 2.37-1.62 5.8 0.54 6.53 2.95l2.09 6.98c3.26-4.04 5.63-7.56 6.34-12.14l2.48-15.91c8 10.04-3.21 31.24-6.49 42.86-6.39-0.42-3.32-11.09-6.59-16.49-10.57 13.06-19.07 25.53-27.73 39.16z"/>
						<path id="&lt;Path&gt;" class="s8" d="m469.72 560.38l-22.03 13.36c6.55-8.89 14.59-14.53 22-21.5l0.02-16.29c6.28-3.22 11.21-8.22 14.67-14.54l8.63-15.73c2.95-5.38 9.04-8.37 15.02-6.25-18.72 4.94-12.69 27.03-33.54 36.53 1.07 14.01 0.59 12.14-4.77 24.42z"/>
						<path id="&lt;Path&gt;" class="s9" d="m495.35 676.16c-8.87 6.96-28.74 16.18-39.93 10.01 15.28-7.24 35.14-3.4 42.14-20.63 2.38 3.76 1.17 7.97-2.21 10.62z"/>
						<path id="&lt;Path&gt;" class="s9" d="m483.74 573.97c-5.38-6.77 4.7-20.9 8.31-27.64 1.41 3.81 1.21 6.7 0.75 10.24-2.63 5.95-5.1 11.22-9.06 17.4z"/>
						<path id="&lt;Path&gt;" class="s8" d="m433.1 589.02c2.23-3.36 5.16-6.45 8.32-9.16-2 3.94-4.47 6.62-8.32 9.16z"/>
						<path id="&lt;Path&gt;" class="s9" d="m376.35 700.87c0 0.26-0.21 0.48-0.47 0.48-0.26 0-0.47-0.22-0.47-0.48 0-0.26 0.21-0.47 0.47-0.47 0.26 0 0.47 0.21 0.47 0.47z"/>
						<path id="&lt;Path&gt;" class="s8" d="m514.89 888.74c-10.83 0.79-21.84 2.18-33.01 4.82l-22.59 5.32c-5.94-10.11-13.3-18.24-23.07-24.46l-28.88-18.38c-1.96-1.25-0.1-5.87 1.16-7.29l5.68-6.37c2.05 4.6-1.52 6.52-4.57 10.37 17.22 15.32 41.13 20.47 49.91 42.1 16.87-1.7 40.28-15.11 55.37-6.11z"/>
						<path id="&lt;Path&gt;" class="s9" d="m524.71 861.42c-13.55 3.98-38.82 4.15-43.73-12.02 6.01 0.26 9.75 5.3 14.79 7.15 9.21 3.39 19.17 2.33 28.94 4.87z"/>
						<path id="&lt;Path&gt;" class="s8" d="m471.32 796.55l-20.5 4.47c7.31-7.92 18.56-11.99 29.75-8.48-2.8 2.27-5.81 3.26-9.25 4.01z"/>
						<path id="&lt;Path&gt;" class="s9" d="m371.21 735.96l-8.89-0.91c-1.66-0.17-3.79-4.53-2.23-5.61 3.2-2.21 6.63-2.15 11.04-1.92z"/>
					</g>
				</g>
				<g id="&lt;Group&gt;">
					<path id="&lt;Compound Path&gt;" fill-rule="evenodd" class="s15" d="m341.38 866.34c-9.11 5.63-17.64 11.44-27.33 15.38l-9.43 3.83c-13.61 5.53-28.05 8.64-42.27 10.2-50.11 5.49-94.13-15.44-126.19-52.46-22.76-26.28-33.25-59.8-28.8-94.89 3.97-31.3 15.27-61.21 33.64-87.07 13.15-18.5 29.45-36.21 50.44-45.76 56.29-25.61 136.1-11.05 173.59 41.14-10.72 18.57-29.25 30.03-45.95 41.08-0.99 8.87 10.88 7.14 4.36 13.73l-7.45 7.52c-7.59-0.97-14.29-4.13-21.11-8.61-16.55 9.78-39.93 6.93-49.47-11.22-5.36 2.65-8.7 8.85-8.48 14.3 0.28 6.82 15.48 14.79 21.11 19.02-12.97 15.45-42.51 23.53-44.76 44.33-0.37 3.43 6.24 6.31 8.38 4.02l12.42-13.29c5.77-6.18 13.66-9.21 22.55-7.61-2.08 4.94-4.49 9.55-7.59 13.93l-11.27 15.92c-4.91 6.93-3.49 15.9 4.29 21.19 7.14-11.19 8.15-27.54 23.04-31.62 0.24 4.7-1.81 8.41-4.15 12.14l-7.38 11.75c2.37 6.63 6.43 11.71 12.11 15.68 10.3-10.51 7.33-28.12 18.42-32.37 2.99 7.04-4.91 10.77-6.48 18.56 3.76 5.08 8.38 9.82 14.61 11.29 2.58-2.08 4.31-6.2 4.63-9.43l1.63-16.56c13.75-11.46 38.37-22.13 30.14-43.69 5.84-4.39 11.59-9.23 18.42-10.64 5.02-1.03 9.29 4.38 10.66 8.28l4.26 12.12c0.84 2.38 4.82 3.83 6.93 2.48 3.75-2.41 6.92-4.97 9.93-7.95l12.95-12.84c12.33 30.05 7.54 61.82-10.51 87.82-11.06 15.93-25 28.5-39.89 40.3zm-86.92-235.85l5.43-9.26c-3.53 1.83-4.25 4.66-6.47 7.55-2.11-2.75-3.11-5.22-6.29-7.46l5.93 10.28 0.11 5.61c0.42-1.82 0.58-5.39 1.29-6.72zm-22.62 9.21l0.08-12.73 11.6 11.74c0.62-6.45 0.1-10.86-1.93-16.95l-0.33 11.65c-2.55 0.09-10.92-13.73-11.97-9.75-0.57 2.13 1.23 15.89 2.55 16.04zm-13.05-9.88l-0.77-1.1-0.61-1.88c-0.12-0.35-0.21-0.16-1.65 0.02l-1.88 17.2c2.29-3.52 2.96-5.7 5.78-6.28 1.53-0.31 3.13-0.69 3.87-0.28l4.43 2.45-7.73-10.13zm-13.74 17.54c-0.24-4.38-1-7.37 0.49-8.04 2.5-1.11 4.71-2.5 4.95-4.42 0.19-1.58-2.13-5.04-3.85-4.52l-7.6 2.3zm-20.22 0.59l8.95 6.44-0.28-13.68 6.24 9.12c0.15-1.36-8.72-19.8-8.4-11.53l0.47 12.11-8.88-6.63c-0.53-0.39-2.26-0.92-2.82-0.61-0.57 0.32-0.48 2.18-0.09 2.81l6.99 11.44c-0.11-3.93-2.49-5.13-2.18-9.47zm-14.66 3.18c-5.12 1.41-7.3 6.16-6 10.49 1.49 4.94 6.05 6.95 10.44 5.84 4.91-1.24 7.21-6.09 5.82-10.68-1.27-4.19-5.73-6.89-10.26-5.65zm-17.76 20.81c-0.36-4.94 3.35-5.71 6.37-7.66-4.1-1.31-6.99 2.82-7.42 5.64-0.61 4.06 0.91 6.88 3.73 8.78 2.9 1.94 7.04 2.32 9.27-0.27-2.93 0.3-5.81 0.37-7.97-0.63-1.57-0.72-3.83-3.9-3.98-5.86zm12.52 5.78c2.98-1.67 3.69-4.49 2.14-6.71zm-16.9 25.14c-3.08-4.33-6.89-4.21-10.75-7.67l17.3-2.59c-5.14-4-9.15-6.73-15.07-8.4l11.99 7.64c-6.96 1.18-12.08 1.28-18.12 2.99 5.61 4.01 9.68 6.41 14.65 8.03zm-11.51 5.55c0.79-1.07 1.3-2.09 2.23-2.25 0.78-0.12 3.48 1.1 3.99 1.76 1.95 2.58-0.63 7.65-3.78 8.63-3.6 1.12-7.33-0.32-9.52-3.89-1.79-2.93 0.52-6.32 3.14-9.82-4.32 0.81-5.37 6.58-4.46 9.99 1.06 3.94 5.37 5.99 9.04 5.75 7.37-0.48 8.8-11.43 7.28-12l-3.83-1.4c-0.76-0.29-2.97-0.78-3.41-0.12-0.36 0.53-0.5 1.89-0.68 3.35zm3.04 16.58c-5.25-2.94-10.27-4.31-15.54-4.84 4.95 2.76 10.23 4.41 15.54 4.84zm-4.27 3.88c-5.57-1.77-5 4.28-9.47 6.6-0.79 0.41-2.96-1.03-2.97-1.93-0.02-0.89 0.22-2.57 0.49-3.59l0.42-1.63c0.52-2.02-4.23 2-2.14 6.57 0.59 1.3 3.49 2.75 4.93 2.36 3.81-1.05 4.94-10.06 9.02-6.35 2.21 2.01 0.29 5.07-0.51 7.77 1.6-0.66 2.94-3.13 3.16-4.93 0.16-1.36-1.34-4.37-2.93-4.87zm-6.73 20.21l-0.44-6.86c-0.98 1.18-1.2 2.57-1.34 4.48-0.14 1.95-1.17 3.73-2.75 3.53-1.68-0.22-3.11-1.82-3.07-3.21 0.08-2.94 0.16-4.27-0.32-6.73l-1.27 10.39 16.03 1.75c0.53-4.25 1-6.99 0.29-11.04l-1.84 9.03c-1.09 0.49-5.2 0-5.29-1.34zm7.92 20.19c-0.35-4.51-0.78-7.41-2.82-10.36-1.37-1.98-5.13-2.9-7.48-2.52-6.45 1.06-6.79 7.95-6.29 14.21zm-11.77 15.72c-2.73 3.38-0.91 7.46 1.04 9.57 3.53 3.8 8.35 2.93 10.98 1.09 6.85-4.77 1.65-14.62 0.04-14.65-1.9-0.04-8.21 1.36-7.53 2.85l1.67 3.62c0.88-2.11 1.54-3.86 2.91-4.36 2-0.72 4.65 1.49 5.03 3.27 0.85 4.04-0.17 6.45-3.79 8.27-2.15 1.09-5.57 1.22-8.08-0.88-2.1-1.75-2.36-5.13-2.27-8.78zm9.24 31.48c6.15-2.66 10.19-4.13 14.73-7.21l-12.33 4.21 7.81-15.18c-7.21 2.31-11.51 3.88-16.53 7.56l13.36-4.78-6.89 12.26c-0.42 0.75-0.46 2.8-0.15 3.14zm17.33-0.54c0.49-0.29-0.57-1.85-1.08-1.54-3.57 2.19-8.88 5.49-12.28 8.18 4.05-1.38 9.88-4.58 13.36-6.64zm5.16 8.18c-2.19-3.21-6.53-3.15-9.78-0.39-1.89 1.62-3.91 4.91-2.87 7.43 1.31 3.2 2.95 5.58 5.04 8.35l12.86-9.3zm14.43 16.89c-0.89-3.99-6.27-6.19-9.88-5.05-4.47 1.43-7.17 6.68-4.78 11.35 1.04 2.03 3.14 4.07 5.33 6.07l11.01-9.87c0.38-0.34-0.39-2.48-1.68-2.5zm1.24 20.06c-2.55-1.96-3.73-4.92-6.52-4.46l8.14 6.35 9.9-12.34c-3.1-2.67-4.9-4.23-8.17-6.03 1.21 2.17 3.13 4.03 5.03 5.82 1.01 0.95-0.65 4.14-2.06 4.73-1.1 0.46-3.25-1.17-4.45-2.18l-1.9-1.62c-0.23-0.19-0.6 1.22-0.35 1.39l1.49 1c1.18 0.79 3.09 3.31 2.46 4.48-0.61 1.13-2.71 2.78-3.57 2.86zm15.47-2.98c-3.35 2.15-6.84 4.99-9.3 9.11 3.59-2.29 6.42-5.42 9.21-8.45l1.21 1.53-2.14 12.84 10.82-9.01c-0.38 4.83-1.75 8.21-1.5 13.24 2.15-5.56 3.16-9.91 3.98-17.21l-11.31 9.13 2.84-13.19c-0.73-0.34-2.23-0.67-2.53-0.17zm22.83 23.2l-2.45-0.78c-0.4-0.13-0.44 1.61-0.03 1.7l8.57 1.9 5.3-15.21-10.56-2.62c1.72 2.01 4.12 2.47 6.55 3.21 1.56 0.48 1.2 4.44 0.08 5.76-0.84 0.99-3.58 0.33-5.05-0.37l-1.95-0.94c-0.3-0.15-0.49 1.04-0.18 1.13l1.63 0.45c1.54 0.43 4.09 1.19 4.34 2.36 0.25 1.17-0.76 4.11-1.9 4.49-0.95 0.31-2.47-0.48-4.35-1.08zm24.32 7.21c1.67-5.62 2.54-10.13 2.96-16.13-1.54 2.42-1.67 3.71-2.64 7.26l-8.55-1.05 0.15-8.8c-1.68 6.35-2.47 11.24-2.96 17.32 1.35-1.47 1.7-3.7 2.58-5.96 0.76-1.97 6.96-0.61 7.79 1.01zm17.45 1.47l-5.43-2.54c0.31-4.92 1.14-9.43 0.09-14.2l-2.04 14.35-5.53 1.05c4.87 1.43 7.86 1.7 12.91 1.34z"/>
					<path id="&lt;Path&gt;" class="s12" d="m262.37 897.41c28.04-3.56 56.74-12.9 79.26-29.94 9.88-5.1 18.51-13.09 26.52-21.39 3.48-3.6 7.24-6.86 12.97-5.58-19.07 46.66-66.38 75.32-115.16 81.68-46.17 6.02-91.27-11.9-123.31-44.67-18.38-18.8-41.48-48.24-47.65-74.17-7.4-31.1-6.19-62.94 2.77-93.62 10.33-35.35 32.12-73.85 63.39-94.39 30.85-20.26 66.94-28.99 103.85-26.47 44.2 3.02 90.01 21.09 109.02 64.53-16.85-9.89-30.01-29.65-46.85-37.9-58.08-28.45-126.5-25.38-173.57 22.6-16.08 16.39-28.65 35.08-38.2 56.01-14.91 32.69-17.85 68.42-9.69 103.37 2.31 9.9 5.04 18.7 10.84 27.21 11.88 17.45 24.66 34.33 41.05 48.14 16.05 13.52 36.15 20.63 56.59 24.32 16.42 2.96 32.34 2.28 48.17 0.27z"/>
					<path id="&lt;Path&gt;" class="s16" d="m287.88 566.13c-54.21 1.98-94.86 6.51-137.11 40.63 6.19-10.37 15.5-16.98 25.71-22.53 30.71-16.69 77.48-26.63 111.4-18.1z"/>
					<path id="&lt;Path&gt;" class="s14" d="m292.84 566.64c17.24-5.69 41.1 7.55 52.86 20.11-18.65-5.46-35.16-12.57-52.86-20.11z"/>
					<path id="&lt;Path&gt;" class="s10" d="m338.45 596.18c-4.42 5.51-11.48 4.42-15.81 0.33-4.27-4.02-6.72-8.8-7.83-15.51l12.22 4.56c4.66 1.74 8.37 5.82 11.42 10.62z"/>
					<path id="&lt;Path&gt;" class="s10" d="m311.04 590.18c-1.51 0.57-5.66 1.07-7.67 0.34l-14.9-5.36c-0.42-4.44 3.94-7.8 8.18-7.99l9.48-0.42z"/>
					<path id="&lt;Path&gt;" class="s10" d="m275.66 585.22l-10.06-8.09-4.63-3.41c2.52-1 6.14-2.19 8.67-1.84l18.43 2.57c-2.83 5.78-6.34 7.67-12.41 10.77z"/>
					<path id="&lt;Path&gt;" class="s11" d="m341.38 866.34l0.25 1.13c-22.52 17.04-51.22 26.38-79.26 29.94l-0.02-1.66c14.22-1.56 28.66-4.67 42.27-10.2l9.43-3.83c9.69-3.94 18.22-9.75 27.33-15.38z"/>
					<path id="&lt;Path&gt;" class="s10" d="m223.38 586.14c-3.14 1.28-8.37-1.16-8.26-4.23 4.55-5.25 12.16-5.46 18.95-5.01-2.26 4.49-6.03 7.36-10.69 9.24z"/>
					<path id="&lt;Path&gt;" class="s10" d="m239.36 582.49c-1.2 0.01-0.85-3.54-0.07-4.18l6.93-5.64c4.41 2.68 8.14 5.34 11.3 9.69z"/>
					<path id="&lt;Path&gt;" class="s16" d="m136.6 631.98c-1.69-1.94-0.52-6.63 1.96-9.08l9.71-9.54c2.8 3.26 0.88 7.28-1.96 9.85z"/>
					<path id="&lt;Path&gt;" class="s16" d="m177.87 600.52c-4.05 6.5-10.11 2.44-17.67 12.33-2.77-3.87-0.13-7.77 3.46-9.96 4.37-2.64 8.96-5.86 14.21-2.37z"/>
					<path id="&lt;Path&gt;" class="s16" d="m184.1 598.07c-1.55 0.14-2.53-3.38-2.16-4.6 0.38-1.27 2.01-2.94 3.55-3.44l12.55-4.04c-2.18 5.92-6.45 11.4-13.94 12.08z"/>
					<path id="&lt;Path&gt;" class="s16" d="m378.37 641.68c-3.94 0.69-14.56-13.75-10.56-17.06 2.01-0.97 5.55 0.97 6.3 3.38z"/>
					<path id="&lt;Path&gt;" class="s14" d="m343.87 608.08l-5.1-2.44c-1-2.54-0.06-5.93 2.04-7.98 1.64-1.6 5.12-2.15 7.69-0.1z"/>
					<path id="&lt;Path&gt;" class="s16" d="m214.36 587.84c-2.14 4.92-7.78 4.93-12.53 4.86 1.3-2.38 2.81-4.61 4.3-5.71 1.98-1.45 6.51-1.13 8.23 0.85z"/>
					<path id="&lt;Path&gt;" class="s14" d="m347.1 586.7c0 0.26-0.21 0.47-0.47 0.47-0.26 0-0.47-0.21-0.47-0.47 0-0.26 0.21-0.47 0.47-0.47 0.26 0 0.47 0.21 0.47 0.47z"/>
					<path id="&lt;Path&gt;" class="s17" d="m184.82 647.95c-0.31 4.33 2.07 5.54 2.18 9.47l-6.99-11.44c-0.39-0.63-0.48-2.49 0.09-2.81 0.56-0.31 2.29 0.21 2.82 0.61l8.89 6.63-0.48-12.11c-0.32-8.27 8.55 10.17 8.4 11.53l-6.24-9.12 0.28 13.68z"/>
					<path id="&lt;Path&gt;" class="s18" d="m231.84 639.7c-1.32-0.15-3.12-13.91-2.55-16.04 1.05-3.98 9.42 9.84 11.97 9.75l0.33-11.65c2.03 6.09 2.55 10.5 1.93 16.95l-11.6-11.74z"/>
					<path id="&lt;Path&gt;" class="s18" d="m187.48 858.75l0.09-0.66 1.28-2.17c0.3-0.51 1.8-0.18 2.53 0.16l-2.84 13.19 11.31-9.12c-0.82 7.3-1.83 11.64-3.98 17.2-0.25-5.03 1.12-8.4 1.5-13.24l-10.82 9.01 2.14-12.84z"/>
					<path id="&lt;Path&gt;" class="s18" d="m124.7 785c-0.1 3.65 0.17 7.03 2.26 8.78 2.51 2.1 5.93 1.97 8.09 0.88 3.61-1.82 4.64-4.23 3.78-8.27-0.37-1.78-3.03-3.99-5.02-3.27-1.38 0.5-2.03 2.25-2.92 4.35l-1.66-3.62c-0.69-1.49 5.62-2.88 7.52-2.84 1.61 0.03 6.81 9.88-0.03 14.65-2.63 1.84-7.46 2.71-10.98-1.09-1.96-2.11-3.77-6.19-1.04-9.57z"/>
					<path id="&lt;Path&gt;" class="s17" d="m136.51 708.42c0.18-1.46 0.32-2.82 0.68-3.35 0.44-0.66 2.65-0.17 3.41 0.11l3.83 1.41c1.52 0.56 0.09 11.51-7.28 12-3.67 0.23-7.98-1.81-9.04-5.76-0.91-3.4 0.14-9.17 4.45-9.98-2.61 3.49-4.92 6.88-3.13 9.82 2.19 3.57 5.92 5 9.52 3.89 3.15-0.98 5.73-6.05 3.78-8.63-0.51-0.66-3.21-1.88-3.99-1.76-0.93 0.15-1.45 1.18-2.23 2.25z"/>
					<path id="&lt;Path&gt;" class="s18" d="m148.02 702.87c-4.97-1.62-9.04-4.02-14.65-8.03 6.04-1.72 11.16-1.81 18.12-2.99l-11.99-7.64c5.92 1.67 9.93 4.4 15.07 8.4l-17.3 2.59c3.86 3.46 7.67 3.33 10.75 7.67z"/>
					<path id="&lt;Path&gt;" class="s17" d="m133.94 816.48c-0.32-0.34-0.28-2.39 0.15-3.14l6.88-12.26-13.35 4.78c5.02-3.68 9.32-5.25 16.52-7.56l-7.81 15.18 12.34-4.21c-4.54 3.08-8.59 4.55-14.73 7.21z"/>
					<path id="&lt;Compound Path&gt;" fill-rule="evenodd" class="s17" d="m170.16 651.13c4.53-1.24 8.99 1.46 10.26 5.65 1.39 4.59-0.91 9.44-5.82 10.68-4.39 1.11-8.94-0.9-10.44-5.84-1.3-4.33 0.88-9.08 6-10.49zm1.8 15.44c5.73 0.17 8.14-4.78 7.09-8.63-1.16-4.22-5.09-7.3-9.84-5.22-2.79 1.22-4.62 5.31-3.86 8.05 0.67 2.42 3.71 5.71 6.61 5.8z"/>
					<path id="&lt;Path&gt;" class="s18" d="m156.43 824.12c-3.37-1.31-7.79-0.81-9.87 1.88-2.56 3.31-1.65 8.76 2.64 11.09l10.35-7.4-3.12-5.57 5.24 6.09-12.85 9.3c-2.09-2.77-3.73-5.15-5.05-8.35-1.04-2.52 0.99-5.81 2.88-7.43 3.24-2.76 7.59-2.83 9.78 0.39z"/>
					<path id="&lt;Path&gt;" class="s18" d="m170.86 841.01c-2.43-1.76-5.18-3.81-7.39-3.75-3.2 0.09-6.16 3.12-6.43 5.45-0.32 2.85 1.32 8.03 5.09 7.97l8.73-9.67c1.29 0.02 2.06 2.16 1.68 2.5l-11.01 9.87c-2.19-2-4.29-4.04-5.33-6.06-2.39-4.67 0.31-9.93 4.78-11.35 3.61-1.15 8.99 1.05 9.88 5.04z"/>
					<path id="&lt;Path&gt;" class="s18" d="m128.55 749.08c0.09 1.34 4.2 1.84 5.29 1.34l1.84-9.02c0.71 4.04 0.24 6.79-0.29 11.03l-16.03-1.74 1.27-10.4c0.48 2.46 0.4 3.8 0.32 6.73-0.04 1.4 1.39 3 3.07 3.21 1.58 0.21 2.61-1.57 2.75-3.53 0.14-1.9 0.36-3.29 1.34-4.47z"/>
					<path id="&lt;Compound Path&gt;" fill-rule="evenodd" class="s18" d="m136.47 769.28l-16.59 1.33c-0.5-6.26-0.16-13.15 6.29-14.21 2.35-0.39 6.11 0.54 7.48 2.52 2.04 2.95 2.46 5.85 2.82 10.36zm-1.56-0.65c-0.53-4.06-0.86-6.58-2.17-8.31-2.65-3.5-7.27-2.73-9.83-0.61-1.89 1.55-3.19 7.92-0.82 8.88z"/>
					<path id="&lt;Path&gt;" class="s18" d="m234.72 888.5l-0.67-6.35c-0.83-1.62-7.03-2.98-7.79-1.01-0.88 2.26-1.23 4.48-2.58 5.95 0.49-6.08 1.28-10.96 2.96-17.31l-0.15 8.8 8.55 1.05c0.97-3.55 1.1-4.85 2.64-7.26-0.42 6-1.29 10.51-2.96 16.13z"/>
					<path id="&lt;Path&gt;" class="s17" d="m210.4 881.29c1.88 0.6 3.4 1.39 4.35 1.08 1.14-0.38 2.15-3.32 1.9-4.49-0.25-1.17-2.8-1.93-4.34-2.36l-1.63-0.46c-0.31-0.08-0.12-1.27 0.18-1.13l1.95 0.94c1.47 0.71 4.21 1.37 5.05 0.38 1.12-1.32 1.48-5.28-0.08-5.76-2.43-0.74-4.83-1.21-6.55-3.21l10.56 2.62-5.3 15.21-8.57-1.9c-0.41-0.09-0.37-1.83 0.03-1.7z"/>
					<path id="&lt;Path&gt;" class="s18" d="m135.28 728.88c1.59 0.5 3.09 3.5 2.93 4.86-0.22 1.81-1.56 4.28-3.16 4.93 0.8-2.69 2.72-5.76 0.51-7.77-4.09-3.7-5.21 5.31-9.02 6.35-1.44 0.4-4.34-1.05-4.93-2.35-2.09-4.57 2.66-8.59 2.14-6.57l-0.42 1.63c-0.27 1.01-0.51 2.69-0.49 3.59 0.01 0.9 2.18 2.34 2.97 1.92 4.47-2.32 3.9-8.36 9.47-6.59z"/>
					<path id="&lt;Compound Path&gt;" fill-rule="evenodd" class="s17" d="m205.05 647.36l-6.01-14.68 7.6-2.3c1.72-0.52 4.04 2.94 3.84 4.52-0.23 1.92-2.44 3.31-4.95 4.42-1.49 0.67-0.73 3.66-0.48 8.04zm3.39-13.86c-0.85-1.96-5.93-2.59-6.52-0.16-0.26 1.11 0.36 4.71 1.48 4.71 0.94 0 2.8-0.43 3.68-0.74 0.88-0.32 1.74-2.94 1.36-3.81z"/>
					<path id="&lt;Path&gt;" class="s18" d="m252.17 889.96c-5.06 0.37-8.04 0.09-12.91-1.34l5.53-1.04 2.03-14.36c1.05 4.77 0.23 9.28-0.09 14.21z"/>
					<path id="&lt;Path&gt;" class="s17" d="m172.1 861.07c0.86-0.07 2.96-1.73 3.57-2.85 0.63-1.17-1.28-3.7-2.46-4.49l-1.49-1c-0.25-0.16 0.12-1.57 0.35-1.38l1.9 1.61c1.2 1.01 3.35 2.65 4.46 2.18 1.4-0.58 3.06-3.77 2.05-4.72-1.9-1.79-3.82-3.66-5.03-5.83 3.27 1.8 5.08 3.37 8.17 6.04l-9.9 12.33-8.14-6.34c2.79-0.46 3.97 2.5 6.52 4.45z"/>
					<path id="&lt;Path&gt;" class="s18" d="m218.02 628.72c-1.85 1.97-2.31 5.72-1.58 8.69 2.4-0.34 5.64-1.44 6.35-2.24l-4-5.35h1.44l7.73 10.13-4.43-2.45c-0.74-0.41-2.34-0.03-3.87 0.28-2.82 0.58-3.49 2.76-5.78 6.28l1.88-17.2c1.44-0.18 1.53-0.37 1.65-0.02z"/>
					<path id="&lt;Path&gt;" class="s17" d="m152.4 671.94c0.15 1.96 2.41 5.14 3.98 5.86 2.16 1 5.04 0.93 7.98 0.63-2.24 2.59-6.37 2.21-9.27 0.27-2.83-1.9-4.35-4.72-3.73-8.78 0.42-2.82 3.31-6.95 7.41-5.64-3.02 1.95-6.73 2.72-6.37 7.66z"/>
					<path id="&lt;Path&gt;" class="s18" d="m254.46 630.49c-0.71 1.33-0.87 4.9-1.29 6.72l-0.11-5.61-5.93-10.28c3.18 2.24 4.18 4.71 6.29 7.46 2.22-2.89 2.94-5.72 6.47-7.55z"/>
					<path id="&lt;Path&gt;" class="s17" d="m139.55 725c-5.31-0.43-10.59-2.08-15.54-4.84 5.27 0.53 10.29 1.9 15.54 4.84z"/>
					<path id="&lt;Path&gt;" class="s17" d="m151.26 815.94c-3.47 2.06-9.31 5.26-13.35 6.64 3.4-2.69 8.71-5.99 12.27-8.18 0.51-0.31 1.58 1.25 1.08 1.54z"/>
					<path id="&lt;Path&gt;" class="s1" d="m218.79 629.82l4 5.35c-0.71 0.8-3.95 1.9-6.35 2.24-0.73-2.97-0.27-6.72 1.58-8.69z"/>
					<path id="&lt;Path&gt;" class="s17" d="m187.57 858.09l-0.09 0.66c-2.79 3.03-5.62 6.16-9.21 8.46 2.46-4.13 5.95-6.96 9.3-9.12z"/>
					<path id="&lt;Path&gt;" class="s17" d="m164.92 677.72l2.15-6.71c1.54 2.22 0.83 5.04-2.15 6.71z"/>
					<path id="&lt;Path&gt;" class="s1" d="m171.96 666.57c-2.9-0.09-5.94-3.38-6.61-5.8-0.76-2.74 1.07-6.83 3.86-8.05 4.75-2.08 8.68 1 9.84 5.22 1.05 3.85-1.36 8.8-7.09 8.63z"/>
					<path id="&lt;Path&gt;" class="s1" d="m156.43 824.12l3.12 5.57-10.35 7.4c-4.29-2.33-5.2-7.78-2.64-11.09 2.08-2.69 6.5-3.19 9.87-1.88z"/>
					<path id="&lt;Path&gt;" class="s1" d="m170.86 841.01l-8.73 9.67c-3.77 0.06-5.41-5.12-5.09-7.97 0.27-2.33 3.23-5.36 6.43-5.45 2.21-0.06 4.96 1.99 7.39 3.75z"/>
					<path id="&lt;Path&gt;" class="s1" d="m134.91 768.63l-12.82-0.04c-2.37-0.96-1.07-7.33 0.82-8.88 2.56-2.12 7.18-2.89 9.83 0.61 1.31 1.73 1.64 4.25 2.17 8.31z"/>
					<path id="&lt;Path&gt;" class="s1" d="m208.44 633.5c0.38 0.87-0.48 3.49-1.36 3.81-0.88 0.31-2.74 0.74-3.68 0.74-1.12 0-1.74-3.6-1.48-4.71 0.59-2.43 5.67-1.8 6.52 0.16z"/>
				</g>
			</g>
		</g>
	</g>
</svg>